<?xml version="1.0" standalone="no"?>
<!DOCTYPE svg PUBLIC "-//W3C//DTD SVG 20010904//EN"
 "http://www.w3.org/TR/2001/REC-SVG-20010904/DTD/svg10.dtd">
<svg version="1.0" xmlns="http://www.w3.org/2000/svg"
 width="1600.000000pt" height="1600.000000pt" viewBox="0 0 1600.000000 1600.000000"
 preserveAspectRatio="xMidYMid meet">

<g transform="translate(0.000000,1600.000000) scale(0.100000,-0.100000)"
fill="#000000" stroke="none">
<path d="M7800 10654 c-19 -2 -78 -9 -130 -15 -105 -12 -295 -50 -378 -76
-123 -39 -161 -173 -73 -257 42 -40 93 -47 183 -24 368 96 744 98 1078 6 184
-50 401 -143 555 -238 326 -201 612 -520 774 -863 93 -198 165 -448 185 -642
l6 -60 -41 -40 c-22 -22 -53 -62 -67 -90 -23 -43 -27 -62 -26 -135 0 -68 4
-93 22 -128 97 -184 335 -225 480 -82 85 84 112 194 75 311 -13 41 -31 68 -77
114 l-61 60 -18 130 c-10 72 -21 141 -24 154 -6 26 -12 27 142 -10 430 -101
802 -397 999 -794 91 -182 134 -338 156 -552 36 -357 -82 -750 -313 -1050 -74
-96 -246 -255 -352 -326 -128 -85 -260 -146 -405 -190 -201 -61 -215 -62 -975
-62 l-690 0 -5 1405 c-5 1333 -6 1407 -23 1433 -61 94 -208 84 -256 -17 -21
-42 -21 -49 -21 -1434 l0 -1392 -185 0 -185 0 0 1218 c0 1166 -1 1219 -19
1252 -53 101 -196 108 -258 13 -17 -26 -18 -93 -23 -1253 l-5 -1225 -185 0
-185 0 -5 1050 c-5 1010 -6 1051 -24 1078 -26 39 -72 60 -128 61 -38 0 -55 -6
-85 -31 -21 -16 -43 -45 -50 -64 -9 -25 -12 -293 -12 -1066 l-1 -1033 -170 0
c-185 0 -216 -6 -259 -54 -37 -39 -41 -128 -9 -176 13 -19 39 -43 58 -52 33
-17 135 -18 1705 -18 1715 0 1739 0 1937 41 252 51 543 187 747 349 348 277
582 671 663 1120 30 167 30 450 0 611 -43 226 -109 408 -213 589 -282 493
-765 818 -1333 898 l-129 18 -38 92 c-113 279 -279 523 -513 758 -440 441
-986 674 -1616 688 -91 3 -181 2 -200 0z"/>
<path d="M6389 10237 c-25 -7 -69 -30 -97 -51 -84 -62 -139 -199 -114 -288 10
-36 8 -39 -64 -130 -246 -307 -411 -674 -479 -1063 -10 -55 -23 -103 -29 -107
-6 -4 -29 -8 -52 -8 -55 0 -237 -34 -326 -61 -407 -124 -759 -427 -943 -812
-61 -128 -96 -229 -128 -372 -19 -85 -22 -130 -22 -305 0 -180 3 -218 24 -310
115 -510 444 -913 905 -1110 152 -65 270 -97 451 -121 l89 -11 51 -53 c181
-189 492 -75 512 187 9 116 -52 224 -158 283 -48 27 -63 30 -139 30 -103 0
-160 -24 -225 -97 l-42 -47 -94 13 c-336 48 -631 225 -833 499 -279 379 -322
872 -111 1298 182 368 576 645 971 683 l61 5 7 -117 c13 -223 67 -488 138
-677 17 -44 57 -137 90 -207 l61 -127 -22 -50 c-84 -196 81 -425 295 -408 112
8 204 67 248 160 87 181 -9 385 -201 428 l-56 13 -53 112 c-91 193 -151 392
-186 614 -19 122 -16 438 5 574 60 380 210 717 446 1004 35 41 36 42 98 42
116 0 209 54 269 156 36 61 44 167 20 242 -47 142 -219 231 -367 189z"/>
<path d="M11075 9840 c-24 -48 -39 -60 -131 -116 -17 -10 -12 -15 41 -42 52
-26 64 -38 89 -86 15 -31 32 -53 37 -51 4 3 20 28 35 55 21 39 40 57 87 84
l60 33 -60 32 c-49 26 -64 41 -89 86 -16 30 -32 55 -36 55 -4 0 -19 -23 -33
-50z"/>
</g>
</svg>
