<svg version="1.0" xmlns="http://www.w3.org/2000/svg"
width="1090.000000pt" height="650.000000pt" viewBox="0 0 2183.000000 1302.000000"
 preserveAspectRatio="xMidYMid meet">

<g transform="translate(0.000000,1302.000000) scale(0.100000,-0.100000)"
 stroke="none">
<path fill="#3e42cc" d="M10575 12404 c-136 -11 -344 -38 -464 -60 -74 -14 -140 -23 -147 -20
-6 2 -16 0 -21 -5 -6 -6 -68 -25 -139 -43 -151 -40 -188 -54 -229 -89 -66 -55
-109 -189 -87 -269 7 -26 7 -40 -2 -49 -8 -9 -8 -10 1 -5 7 4 18 -5 27 -23 22
-42 99 -106 144 -119 63 -19 135 -14 250 18 168 46 484 105 582 108 8 1 76 6
150 12 141 13 408 8 580 -10 142 -15 310 -41 306 -49 -2 -3 15 -7 38 -7 54 -2
229 -46 397 -100 338 -109 690 -284 969 -484 132 -93 286 -220 282 -232 -1 -5
1 -7 6 -4 13 8 233 -204 225 -216 -3 -6 -2 -8 4 -5 6 4 39 -26 75 -66 245
-273 473 -619 612 -932 61 -135 134 -329 142 -374 4 -20 13 -48 20 -63 19 -37
86 -305 88 -350 0 -21 4 -38 7 -38 3 0 13 -53 22 -117 25 -177 26 -192 13
-196 -8 -3 -7 -8 2 -19 11 -13 5 -21 -37 -54 -47 -35 -131 -135 -131 -156 0
-5 -5 -6 -12 -2 -6 4 -8 3 -5 -3 4 -6 -2 -31 -13 -55 -10 -24 -22 -63 -26 -86
-4 -25 -11 -39 -17 -35 -6 3 -7 1 -3 -5 4 -7 8 -47 10 -89 2 -47 13 -106 27
-148 13 -38 23 -76 22 -83 0 -7 2 -11 5 -8 3 3 20 -15 37 -42 97 -142 248
-222 430 -226 87 -2 110 1 177 25 223 79 358 269 358 504 0 137 -42 249 -131
348 -27 30 -45 58 -41 62 4 3 2 5 -5 3 -19 -5 -94 46 -98 67 -2 11 -11 85 -20
165 -9 80 -25 192 -36 249 -11 57 -19 105 -17 107 6 5 236 -43 342 -71 330
-88 666 -261 956 -491 230 -183 487 -484 629 -735 33 -59 38 -74 19 -63 -7 4
-8 3 -4 -5 4 -6 11 -9 16 -6 19 12 137 -254 199 -449 92 -287 125 -530 118
-856 -4 -223 -37 -500 -58 -500 -5 0 -6 -6 -4 -13 8 -20 -59 -254 -111 -383
-67 -171 -162 -353 -264 -506 -101 -152 -197 -271 -210 -263 -6 3 -7 0 -5 -7
7 -17 -225 -247 -340 -338 -173 -137 -537 -352 -567 -334 -6 4 -8 3 -5 -3 7
-11 -170 -86 -183 -78 -5 3 -10 1 -12 -4 -4 -13 -210 -74 -333 -100 -271 -55
-240 -54 -1487 -58 -810 -3 -1158 -1 -1158 6 0 6 -8 11 -17 11 -15 0 -16 -2
-3 -10 12 -8 11 -10 -7 -10 l-23 0 0 2420 c0 1703 -3 2434 -11 2470 -15 68
-64 138 -123 175 -45 27 -57 30 -135 30 -76 0 -92 -3 -133 -27 -25 -16 -60
-45 -78 -65 -64 -79 -60 103 -60 -2560 0 -1932 -3 -2423 -12 -2423 -9 0 -8 -4
2 -10 12 -8 9 -10 -12 -10 -14 0 -29 6 -31 13 -4 9 -6 9 -6 0 -1 -10 -67 -13
-296 -13 l-295 0 0 2128 c0 1434 -3 2139 -10 2164 -16 57 -70 120 -130 153
-46 24 -66 29 -125 29 -59 0 -79 -5 -125 -29 -60 -33 -114 -96 -130 -153 -7
-25 -10 -730 -10 -2164 l0 -2128 -301 0 c-300 0 -302 0 -322 23 l-20 22 6 -23
c3 -12 1 -22 -4 -22 -5 0 -9 734 -9 1808 0 2011 5 1865 -69 1955 -22 26 -42
48 -46 47 -3 0 -20 8 -38 17 -23 13 -55 18 -118 18 -78 0 -90 -3 -135 -30 -59
-37 -108 -107 -123 -175 -8 -36 -11 -590 -11 -1838 0 -983 -4 -1781 -9 -1774
-7 11 -9 11 -14 -2 -4 -9 1 -16 11 -19 9 -3 -122 -5 -293 -6 -277 -1 -314 -3
-350 -20 -97 -44 -155 -131 -155 -234 0 -33 5 -77 12 -99 15 -50 78 -122 132
-151 l41 -22 2970 0 c2818 0 2977 1 3105 18 382 52 707 150 1033 313 135 68
297 164 401 239 42 30 76 52 76 50 0 -2 10 6 23 18 13 12 68 59 123 104 55 45
156 140 226 211 70 71 130 127 133 123 4 -3 5 -1 3 5 -4 12 101 144 115 144 6
0 8 3 5 6 -4 3 25 49 64 102 240 331 431 766 518 1183 54 260 79 576 63 819
-6 89 -7 156 -2 158 5 2 9 8 9 13 0 6 -4 7 -10 4 -5 -3 -10 -1 -10 6 0 69 -63
392 -106 539 -14 49 -22 95 -18 101 5 8 3 9 -6 4 -10 -6 -12 -4 -7 8 3 9 3 17
-2 19 -4 2 -22 44 -40 93 -50 134 -149 347 -214 459 -31 54 -54 103 -50 109 4
6 1 7 -7 2 -10 -6 -12 -4 -7 9 4 9 3 15 -2 12 -4 -3 -38 38 -74 92 -147 217
-409 507 -589 651 -37 30 -65 57 -63 61 2 4 -1 7 -8 7 -7 0 -61 36 -122 79
-443 318 -959 514 -1515 574 -52 6 -103 12 -113 13 -12 2 -34 42 -71 133 -29
71 -65 155 -80 187 -14 31 -22 57 -18 57 4 0 2 4 -4 8 -6 4 -24 32 -39 62
-132 263 -345 581 -548 820 -31 35 -53 68 -51 72 3 5 2 7 -3 6 -12 -4 -276
264 -274 277 2 5 -1 7 -5 2 -10 -9 -45 23 -38 35 3 4 1 7 -4 6 -5 -2 -45 27
-88 63 -341 285 -739 527 -1121 680 -60 23 -110 46 -113 50 -9 12 -244 88
-404 129 -173 45 -374 83 -561 106 -124 15 -641 27 -760 18z"/>
<path d="M9505 12130 c-3 -5 -1 -10 4 -10 6 0 11 5 11 10 0 6 -2 10 -4 10 -3
0 -8 -4 -11 -10z"/>
<path  fill="#3e42cc" d="M10798 11853 c28 -2 76 -2 105 0 28 2 5 3 -53 3 -58 0 -81 -1 -52 -3z"/>
<path  fill="#3e42cc" d="M10338 11813 c7 -3 16 -2 19 1 4 3 -2 6 -13 5 -11 0 -14 -3 -6 -6z"/>
<path  fill="#3e42cc" d="M8184 11680 c-114 -17 -229 -75 -303 -153 -19 -20 -39 -33 -44 -30
-6 3 -7 1 -3 -5 4 -7 -6 -31 -22 -54 -65 -96 -92 -246 -69 -393 l7 -50 -86
-105 c-48 -58 -120 -152 -161 -210 -42 -58 -80 -104 -85 -102 -5 1 -7 -2 -3
-8 3 -5 -12 -36 -33 -67 -159 -236 -345 -626 -448 -941 -46 -140 -108 -378
-135 -522 -12 -63 -23 -122 -24 -130 -2 -8 -4 -32 -4 -53 -1 -21 -5 -36 -10
-33 -4 3 -6 -5 -4 -18 5 -22 3 -23 -104 -29 -238 -14 -510 -76 -760 -173 -383
-147 -763 -408 -1030 -704 -173 -192 -310 -392 -423 -618 -37 -72 -70 -129
-75 -125 -4 5 -5 2 -1 -5 4 -7 -11 -58 -32 -115 -75 -191 -135 -435 -163 -662
-19 -149 -16 -504 5 -655 45 -328 119 -574 261 -865 226 -462 598 -865 1047
-1132 53 -32 94 -62 91 -67 -3 -5 -1 -6 5 -2 6 4 40 -8 74 -25 35 -18 102 -49
151 -69 48 -20 84 -40 80 -45 -5 -4 -3 -5 3 -2 6 3 62 -11 125 -32 63 -21 149
-47 191 -56 42 -10 75 -22 72 -27 -3 -4 2 -5 10 -2 8 3 50 -1 93 -10 43 -8
123 -20 178 -27 55 -6 106 -17 114 -23 12 -9 13 -8 6 3 -6 11 -1 12 31 6 21
-4 39 -8 39 -8 7 -22 95 -120 137 -152 31 -23 54 -46 50 -50 -4 -5 -2 -5 4 -2
6 3 39 -6 75 -20 78 -32 226 -43 310 -23 125 29 257 119 319 217 15 23 30 40
34 38 3 -3 4 -2 2 1 -3 3 7 36 21 72 31 82 42 222 23 303 -34 149 -136 283
-267 351 -85 45 -129 58 -218 64 -38 3 -76 7 -83 9 -7 3 -10 0 -7 -5 3 -6 -5
-10 -19 -10 -13 0 -51 -8 -84 -19 -45 -14 -63 -16 -72 -7 -8 8 -10 7 -6 -4 3
-10 -13 -26 -50 -50 -55 -34 -108 -86 -150 -144 l-21 -30 -114 13 c-63 7 -118
17 -124 23 -7 7 -6 9 2 4 6 -3 14 -3 17 2 2 4 -6 8 -19 8 -13 0 -21 -4 -19 -8
8 -13 -15 -9 -136 21 -148 38 -269 81 -400 142 -123 59 -260 137 -260 150 0 5
-4 8 -8 7 -20 -7 -280 196 -274 213 1 5 -4 8 -10 7 -7 -2 -12 3 -10 10 1 8 -1
11 -6 8 -12 -7 -74 58 -65 69 5 4 3 5 -3 2 -13 -7 -99 87 -192 209 -78 103
-194 295 -188 311 3 7 -1 16 -8 20 -20 12 -38 52 -30 66 4 6 3 9 -1 4 -12 -11
-80 156 -121 298 -55 190 -75 324 -81 546 -9 319 26 535 134 832 31 86 37 96
52 85 14 -12 15 -11 2 5 -12 15 -7 31 44 131 67 133 206 342 224 338 7 -1 10
2 7 7 -19 30 368 415 406 403 5 -1 7 1 4 6 -4 7 173 132 188 132 4 0 4 -5 0
-12 -4 -7 -3 -8 5 -4 6 4 8 12 5 18 -5 7 -1 9 9 5 9 -3 16 -2 14 4 -3 13 144
90 161 84 7 -3 11 -1 8 4 -11 17 220 105 384 145 163 41 357 69 367 53 3 -5 9
-3 14 4 6 9 9 -28 8 -96 0 -60 1 -117 4 -125 3 -8 8 -55 12 -105 3 -49 16
-155 27 -235 12 -80 22 -161 22 -182 1 -20 3 -34 5 -32 4 4 42 -145 78 -305 5
-18 3 -22 -7 -16 -9 6 -11 4 -6 -4 5 -7 10 -10 14 -7 8 8 73 -197 67 -212 -3
-7 0 -10 5 -7 6 3 10 1 10 -6 0 -27 127 -331 201 -479 72 -144 85 -190 58
-190 -5 0 -8 -3 -7 -7 1 -5 -9 -42 -22 -83 -51 -157 -23 -338 71 -471 10 -14
16 -29 14 -33 -3 -3 -2 -4 2 -1 8 6 119 -97 115 -108 -1 -5 2 -6 7 -3 5 3 32
-5 59 -19 27 -14 55 -25 62 -25 6 0 9 -4 6 -8 -2 -4 3 -8 12 -9 9 0 60 -4 112
-8 170 -13 302 36 420 155 105 106 150 217 150 373 0 68 -6 106 -25 164 -66
195 -207 314 -425 357 -42 9 -55 15 -54 28 1 10 -2 15 -7 13 -11 -8 -138 255
-202 420 -59 151 -111 317 -151 485 -33 138 -41 190 -27 170 9 -12 11 -11 11
7 0 13 -5 22 -12 20 -37 -7 -90 686 -55 722 7 9 8 12 0 7 -13 -7 -9 89 13 287
8 71 14 135 14 144 0 8 4 12 9 9 5 -4 7 3 4 13 -5 21 34 225 68 351 32 119 91
295 101 298 4 2 6 7 3 12 -8 13 66 188 162 380 129 258 237 426 418 653 l80
100 105 -2 c172 -3 294 49 407 172 179 197 178 511 -2 706 -30 32 -51 61 -47
65 4 4 0 6 -8 4 -8 -2 -14 3 -12 10 1 8 -2 11 -6 8 -5 -3 -34 7 -63 23 -98 53
-231 77 -335 61z"/>
<path  fill="#3e42cc"  d="M16718 11386 c-34 -69 -65 -123 -69 -120 -4 2 -11 -1 -15 -7 -4 -8
-3 -9 4 -5 7 4 12 2 12 -4 0 -14 -11 -17 -82 -28 -32 -5 -55 -5 -52 0 3 4 0 8
-5 8 -6 0 -11 -4 -11 -9 0 -5 -35 -14 -77 -20 -42 -6 -79 -14 -82 -17 -3 -3
44 -54 104 -113 l110 -107 -16 -95 c-9 -52 -17 -94 -18 -94 -1 0 -4 -26 -7
-57 -2 -32 -2 -58 0 -58 3 0 65 31 138 70 l133 69 133 -70 c74 -39 136 -68
139 -65 4 4 -27 211 -42 286 -2 9 44 61 108 122 62 58 109 109 106 112 -4 4
-74 16 -157 28 l-150 21 -64 138 c-34 76 -66 139 -71 139 -4 0 -35 -56 -69
-124z"/>
<path fill="#3e42cc"  d="M7272 8200 c0 -14 2 -19 5 -12 2 6 2 18 0 25 -3 6 -5 1 -5 -13z"/>
<path fill="#3e42cc"  d="M7185 6209 c-4 -6 -5 -12 -2 -15 2 -3 7 2 10 11 7 17 1 20 -8 4z"/>
<path fill="#3e42cc"  d="M7578 5453 c6 -2 18 -2 25 0 6 3 1 5 -13 5 -14 0 -19 -2 -12 -5z"/>
<path fill="#3e42cc"  d="M4300 5101 c0 -6 4 -13 10 -16 6 -3 7 1 4 9 -7 18 -14 21 -14 7z"/>
<path fill="#3e42cc"  d="M11214 4205 c0 -143 2 -200 3 -127 2 73 2 190 0 260 -1 70 -3 10 -3
-133z"/>
<path fill="#3e42cc"  d="M11212 3910 c0 -19 2 -27 5 -17 2 9 2 25 0 35 -3 9 -5 1 -5 -18z"/>
<path fill="#3e42cc"  d="M2163 1894 c-34 -7 -78 -20 -97 -28 -20 -8 -36 -11 -36 -7 0 4 -6 8
-14 8 -8 0 -12 -5 -10 -11 2 -6 -20 -24 -48 -40 -29 -16 -89 -66 -133 -110
-63 -63 -90 -100 -122 -166 -60 -121 -74 -184 -80 -345 -4 -120 -2 -153 16
-228 65 -272 245 -466 496 -533 94 -25 296 -30 391 -10 168 37 344 151 424
276 18 27 37 47 43 43 5 -3 7 -2 4 4 -4 5 7 42 23 80 50 119 64 193 63 343 0
105 -5 152 -22 214 -73 273 -262 454 -531 512 -82 17 -285 16 -367 -2z m186
-158 c10 -6 12 -5 7 3 -9 14 66 7 156 -15 269 -65 438 -341 397 -649 -10 -79
-56 -215 -72 -215 -6 0 -8 -3 -4 -6 10 -11 -48 -87 -107 -142 -99 -90 -217
-132 -372 -132 -96 0 -197 17 -188 32 3 4 -2 5 -10 2 -18 -7 -86 27 -149 75
-57 42 -140 148 -133 168 3 8 2 12 -3 9 -13 -8 -50 85 -68 168 -10 47 -13 101
-10 161 6 104 26 197 40 188 6 -3 7 -1 3 5 -10 16 24 93 38 85 6 -3 8 -3 4 2
-19 20 65 122 143 174 73 49 149 78 231 89 73 10 78 9 97 -2z"/>
<path fill="#3e42cc"  d="M6725 1903 c-200 -31 -354 -133 -404 -268 -19 -51 -22 -75 -19 -155
4 -106 24 -154 90 -217 33 -32 142 -93 166 -93 7 0 11 -3 9 -7 -3 -5 5 -9 16
-9 12 -1 94 -18 182 -38 88 -19 168 -36 178 -36 10 0 15 -4 12 -10 -3 -5 0 -7
9 -4 21 8 121 -23 189 -59 60 -32 103 -78 91 -98 -4 -7 -3 -9 4 -5 17 11 26
-79 12 -128 -20 -73 -109 -160 -142 -140 -7 4 -8 3 -4 -4 24 -39 -279 -67
-394 -37 -78 20 -202 83 -193 98 3 5 1 7 -4 4 -13 -8 -84 67 -107 112 -14 26
-20 30 -36 21 -10 -5 -27 -7 -37 -4 -14 4 -15 4 -4 -4 11 -8 9 -11 -10 -17
-13 -5 -25 -7 -27 -6 -1 1 -8 -3 -15 -9 -6 -6 -20 -16 -30 -23 -17 -12 -15
-16 22 -74 22 -34 36 -65 33 -69 -4 -4 -2 -4 4 -1 6 3 28 -12 50 -34 219 -226
756 -240 969 -25 28 28 62 74 75 101 22 45 25 63 25 170 0 111 -2 124 -27 170
-14 28 -46 69 -71 92 -85 78 -164 108 -437 164 -229 46 -304 69 -360 110 -113
82 -81 242 62 315 27 13 49 24 50 23 2 0 17 5 33 12 50 22 307 18 374 -4 73
-25 136 -70 174 -123 26 -37 35 -43 61 -40 16 2 32 8 34 14 2 7 21 22 43 34
21 12 39 27 39 34 0 18 -71 105 -121 148 -102 87 -196 117 -389 121 -80 2
-158 1 -175 -2z"/>
<path fill="#3e42cc"  d="M19592 1899 c-239 -31 -436 -167 -536 -369 -68 -140 -81 -198 -81
-370 0 -172 13 -230 82 -370 62 -127 160 -226 283 -288 131 -65 189 -77 375
-77 147 0 166 2 240 27 101 35 193 88 264 155 l56 52 -55 55 c-30 31 -59 56
-64 56 -6 0 -26 -15 -46 -34 -53 -52 -151 -108 -166 -95 -8 7 -14 6 -20 -2 -5
-8 -3 -10 7 -4 11 6 11 5 3 -4 -39 -43 -265 -58 -383 -27 -250 67 -411 287
-411 562 0 155 64 319 164 419 64 64 169 125 223 130 15 1 42 8 58 15 63 25
357 -3 338 -33 -3 -6 -1 -7 5 -3 16 10 101 -36 166 -89 31 -25 58 -45 62 -45
11 0 114 95 114 106 0 7 -20 28 -45 49 -25 20 -42 41 -39 47 4 7 2 8 -4 4 -6
-3 -36 10 -67 29 -144 93 -329 129 -523 104z"/>
<path fill="#3e42cc"  d="M60 1160 l0 -730 85 0 85 0 0 240 c0 153 4 240 10 240 6 0 10 -4 10
-10 0 -5 8 -10 18 -10 14 0 14 2 3 9 -8 6 95 11 260 13 247 4 281 7 339 26
157 52 265 173 305 343 63 270 -81 527 -336 594 -42 12 -134 15 -416 15 l-363
0 0 -730z m785 533 c223 -120 224 -466 1 -580 -26 -13 -45 -20 -42 -14 4 6 -6
4 -21 -4 -22 -12 -81 -15 -290 -15 l-263 0 0 321 0 320 288 -3 c272 -3 289 -4
327 -25z"/>
<path  fill="#3e42cc"  d="M3590 1160 l0 -730 480 0 480 0 0 85 0 85 -390 0 -390 0 0 645 0 645
-90 0 -90 0 0 -730z"/>
<path fill="#3e42cc"  d="M4640 1862 c0 -18 28 -70 79 -147 44 -66 77 -122 75 -124 -2 -2 3 -9
10 -15 27 -21 316 -477 310 -488 -4 -6 -3 -8 3 -5 6 4 22 -11 37 -33 l26 -40
0 -290 0 -290 85 0 85 0 0 288 0 287 88 133 c49 72 92 129 97 125 4 -5 5 -3 2
4 -4 6 76 138 178 294 109 166 185 292 185 306 0 23 -1 24 -92 21 l-92 -3
-160 -247 c-88 -135 -165 -244 -170 -241 -5 3 -6 1 -2 -5 8 -13 -97 -175 -107
-165 -4 3 -7 1 -7 -5 0 -7 -5 -12 -11 -12 -6 0 -8 8 -4 19 3 11 1 22 -4 26 -7
3 -8 0 -5 -9 3 -9 4 -16 1 -16 -3 0 -100 149 -217 330 l-213 330 -88 0 -89 0
0 -28z"/>
<path  fill="#3e42cc"  d="M7920 1160 l0 -730 90 0 90 0 0 296 c0 265 2 296 16 290 12 -5 14 -1
8 17 l-6 22 25 -24 c15 -13 24 -28 20 -34 -3 -6 -2 -8 3 -4 10 6 605 -546 616
-571 4 -10 7 -11 7 -4 1 9 26 12 91 12 l90 0 0 29 c0 25 -18 46 -104 127 -58
54 -103 101 -100 106 3 5 1 7 -4 6 -11 -3 -532 480 -532 492 0 13 27 30 35 22
5 -4 5 -2 2 4 -4 7 123 134 311 309 282 265 317 301 320 331 l3 34 -89 0 -90
0 -69 -65 c-39 -35 -74 -61 -78 -57 -5 4 -5 2 -2 -4 8 -14 -17 -37 -27 -26 -4
4 -6 3 -4 -3 1 -5 -76 -84 -172 -174 -96 -91 -196 -185 -222 -210 -36 -33 -48
-41 -48 -28 0 10 5 15 10 12 6 -3 10 1 10 9 0 9 -4 16 -10 16 -6 0 -10 95 -10
265 l0 265 -90 0 -90 0 0 -730z"/>
<path fill="#3e42cc"  d="M9240 1865 c0 -15 69 -130 180 -300 98 -151 176 -275 172 -275 -4 0
-2 -4 5 -8 16 -10 136 -194 136 -210 0 -6 3 -10 5 -7 3 3 14 -9 24 -25 16 -28
18 -57 18 -320 l0 -290 90 0 90 0 0 293 0 292 270 412 c176 268 270 421 270
438 l0 26 -91 -3 -91 -3 -75 -115 c-41 -63 -79 -114 -85 -112 -5 1 -7 -2 -4
-7 4 -5 -55 -105 -130 -221 -98 -151 -140 -207 -146 -198 -6 8 -7 5 -3 -11 5
-17 4 -22 -6 -19 -8 3 -13 13 -12 22 0 10 -2 15 -5 12 -9 -9 -103 138 -97 152
3 7 1 11 -4 8 -13 -8 -283 413 -274 427 3 7 3 9 -2 5 -5 -5 -19 8 -32 27 l-24
35 -89 0 c-89 0 -90 0 -90 -25z"/>
<path fill="#3e42cc"  d="M11640 1160 l0 -730 90 0 90 0 0 318 c0 208 4 312 10 302 6 -10 10
-11 10 -2 0 9 85 12 390 12 l390 0 0 85 0 85 -402 1 c-222 0 -397 3 -390 6 6
2 12 9 12 14 0 6 -4 7 -10 4 -7 -4 -10 75 -10 229 l0 236 415 0 415 0 0 85 0
85 -505 0 -505 0 0 -730z"/>
<path fill="#3e42cc"  d="M13160 1160 l0 -730 85 0 85 0 0 730 0 730 -85 0 -85 0 0 -730z"/>
<path fill="#3e42cc"  d="M13890 1160 l0 -730 85 0 85 0 1 538 c1 295 3 530 6 520 2 -9 11 -19
20 -22 14 -6 14 -4 2 11 -9 12 -6 12 8 -2 11 -11 208 -251 437 -532 l418 -513
44 0 44 0 0 730 0 730 -85 0 -85 0 0 -542 c-1 -425 -3 -539 -13 -523 -6 11
-12 25 -12 30 0 6 -5 10 -11 10 -7 0 -199 231 -428 513 l-417 512 -50 0 -49 0
0 -730z"/>
<path fill="#3e42cc"  d="M15881 1411 c-118 -264 -219 -477 -224 -474 -6 3 -7 1 -3 -5 4 -7
-40 -117 -98 -247 -59 -129 -106 -239 -106 -245 0 -6 36 -10 93 -10 l94 0 24
59 c13 33 27 57 33 54 5 -3 6 -1 3 4 -4 6 14 58 40 117 l47 106 383 0 c249 0
383 -4 383 -10 0 -5 5 -10 11 -10 5 0 7 5 3 12 -4 6 -3 8 3 5 5 -3 43 -81 83
-172 l73 -165 93 0 c52 0 94 4 94 9 0 5 -18 48 -40 96 -22 48 -37 92 -33 98 3
7 3 9 -2 5 -11 -10 -267 561 -258 576 3 6 3 8 -2 4 -4 -5 -76 144 -160 330
l-151 337 -84 3 -85 2 -214 -479z m437 -61 c67 -151 133 -301 147 -334 20 -45
22 -57 10 -53 -8 4 -15 2 -15 -3 0 -5 10 -11 23 -13 12 -2 -124 -5 -302 -6
-255 -1 -322 2 -318 12 43 107 92 205 100 200 6 -3 7 -1 3 5 -9 15 55 163 67
155 6 -3 7 -1 3 5 -8 14 121 309 138 315 6 3 14 2 17 -2 4 -3 61 -130 127
-281z"/>
<path fill="#3e42cc"  d="M17330 1160 l0 -730 85 0 85 0 0 518 c0 337 4 512 10 502 8 -13 10
-12 10 3 0 28 -1 32 -11 29 -5 -1 -9 5 -9 13 0 8 2 15 4 15 9 0 219 -264 219
-276 0 -7 4 -12 8 -11 5 1 154 -176 331 -393 l323 -395 48 -3 47 -3 0 730 0
731 -85 0 -85 0 -1 -542 c-1 -299 -4 -534 -6 -523 -6 25 -23 46 -33 40 -11 -7
-382 454 -374 467 4 6 3 8 -3 5 -6 -4 -110 115 -239 273 l-228 280 -48 0 -48
0 0 -730z m958 -325 c-3 -3 -9 2 -12 12 -6 14 -5 15 5 6 7 -7 10 -15 7 -18z"/>
<path fill="#3e42cc"  d="M20760 1160 l0 -730 525 0 525 0 0 85 0 85 -440 0 -440 0 0 240 0
240 410 0 410 0 0 85 0 85 -410 0 -410 0 0 235 0 235 430 0 430 0 0 85 0 85
-515 0 -515 0 0 -730z"/>
<path fill="#3e42cc"  d="M8111 1384 c0 -11 3 -14 6 -6 3 7 2 16 -1 19 -3 4 -6 -2 -5 -13z"/>
<path fill="#3e42cc"  d="M3091 1304 c0 -11 3 -14 6 -6 3 7 2 16 -1 19 -3 4 -6 -2 -5 -13z"/>
<path fill="#3e42cc"  d="M12631 1164 c0 -11 3 -14 6 -6 3 7 2 16 -1 19 -3 4 -6 -2 -5 -13z"/>
<path fill="#3e42cc"  d="M9974 775 c0 -132 2 -185 3 -117 2 68 2 176 0 240 -1 64 -3 9 -3
-123z"/>
<path fill="#3e42cc"  d="M313 893 c9 -2 23 -2 30 0 6 3 -1 5 -18 5 -16 0 -22 -2 -12 -5z"/>
<path fill="#3e42cc"  d="M10953 626 c-83 -37 -81 -167 3 -202 94 -39 181 39 153 139 -17 64
-89 92 -156 63z"/>
<path fill="#3e42cc"  d="M9972 490 c0 -14 2 -19 5 -12 2 6 2 18 0 25 -3 6 -5 1 -5 -13z"/>
<path fill="#3e42cc"  d="M16778 413 c7 -3 16 -2 19 1 4 3 -2 6 -13 5 -11 0 -14 -3 -6 -6z"/>
</g>
</svg>
