<svg height="381" width="348" xmlns="http://www.w3.org/2000/svg"><g fill="#000" fill-rule="evenodd"><path d="M328.27 58.72l2 12.1c.12.71 2.19 13.6 2.19 34a313.74 313.74 0 01-9 74.55 279.49 279.49 0 01-41.59 92.62c-22.42 32.24-54.83 64-102.07 89.44l-5.8 3.07-5.78-3.12c-47.24-25.48-79.65-57.19-102.07-89.44a279.51 279.51 0 01-41.59-92.62 313.74 313.74 0 01-9-74.55c0-20.39 2.07-33.29 2.19-34l2-12.1a7.601 7.601 0 00-15-2.47l-2 12.1C2.52 69.69.36 83.35.35 104.77a328.87 328.87 0 009.47 78.18 294.68 294.68 0 0043.86 97.64c23.66 34.06 58 67.54 107.33 94.14l9.38 5.06a7.57 7.57 0 007.2 0l9.38-5.06c49.34-26.59 83.67-60.07 107.33-94.13a294.66 294.66 0 0043.86-97.64 328.87 328.87 0 009.47-78.19c0-21.42-2.17-35.09-2.39-36.47l-2-12.1a7.602 7.602 0 10-15 2.48z"/><path d="M61.18 50.5L174 16.04l115.33 35.21a7.59 7.59 0 004.43-14.52L176.22.85a7.56 7.56 0 00-4.43 0l-115 35.12a7.59 7.59 0 104.39 14.53z"/><path d="M5.48 60.95l161.77 315.67a7.59 7.59 0 0013.45.12l98.63-184.47.15-.29 63.13-131.2a7.59 7.59 0 10-13.68-6.58l-63.06 131-91.73 171.59L19 54.03a7.59 7.59 0 10-13.51 6.92z"/><path d="M82.9 201.5h179.86a7.59 7.59 0 000-15.18H82.9a7.59 7.59 0 000 15.18"/></g></svg>