<svg viewBox="0 0 60 60"  xmlns="http://www.w3.org/2000/svg" >
		 <svg width="60px" height="60px" viewBox="0 0 2000 2000" fill="none" xmlns="http://www.w3.org/2000/svg">
			<circle cx="1000" cy="1000" r="1000" fill="#EEEEEE" />
			<path fill="#0F044C" d="M1210.1,950.41c-34.14,4.81-66.32,19.31-91.78,42.39a157.74,157.74,0,0,0-38.17,52.67,170.09,170.09,0,0,0-14.24,69.31,168.34,168.34,0,0,0,5.89,45.09,142,142,0,0,0,23.37,47.79L968.61,1700.78,1017,1090.62,676.63,1292l300.86-256.64L384.66,883.17l610.12,48.38L793.44,591.2l256.64,300.85,152.15-592.83-48.37,610.12L1494.21,708Z"/>
			<polygon fill="#D62AD0" points="874.39 486.55 887.6 513.32 917.16 517.62 895.77 538.46 900.82 567.89 874.39 554 847.96 567.89 853 538.46 831.62 517.62 861.17 513.32 874.39 486.55"/>
			<polygon fill="#FB7AFC" points="1584.92 538.96 1594.32 558.01 1615.35 561.06 1600.13 575.89 1603.72 596.83 1584.92 586.95 1566.11 596.83 1569.7 575.89 1554.49 561.06 1575.52 558.01 1584.92 538.96"/>
			<polygon fill="#FAFF00" points="939.43 1375.41 945.67 1388.05 959.61 1390.07 949.52 1399.9 951.9 1413.79 939.43 1407.23 926.96 1413.79 929.35 1399.9 919.26 1390.07 933.2 1388.05 939.43 1375.41"/>
			<polygon fill="#FBC7F7" points="1153.24 1511.9 1156.04 1517.57 1162.3 1518.48 1157.77 1522.89 1158.84 1529.13 1153.24 1526.18 1147.64 1529.13 1148.71 1522.89 1144.18 1518.48 1150.44 1517.57 1153.24 1511.9"/>
		  <defs>
			<linearGradient id="paint0_linear_pancakeround" x1="1000" y1="0" x2="1000" y2="2000" gradientUnits="userSpaceOnUse">
			  <stop stopColor="#0F044C" />
			  <stop offset="0.762157" stopColor="#141E61" />
			</linearGradient>
			<linearGradient
			  id="paint1_linear_pancakeround"
			  x1="844.4444444"
			  y1="533.3333333"
			  x2="844.4444444"
			  y2="1133.333333"
			  gradientUnits="userSpaceOnUse"
			>
			  <stop stopColor="#EEEEEE" />
			  <stop offset="0.370494" stopColor="#7D3900" />
			  <stop offset="1" stopColor="#EEEEEE" />
			</linearGradient>
		  </defs>
		</svg>
</svg>