<?xml version="1.0" encoding="UTF-8" ?>
<!DOCTYPE svg PUBLIC "-//W3C//DTD SVG 1.1//EN" "http://www.w3.org/Graphics/SVG/1.1/DTD/svg11.dtd">
<svg width="40pt" height="40pt" viewBox="0 0 150 150" version="1.1" xmlns="http://www.w3.org/2000/svg">
<g id="#1aefc0ff">
<path fill="#1aefc0" opacity="1.00" d=" M 71.29 1.32 C 87.79 0.45 104.55 5.33 117.95 15.03 C 132.81 25.62 143.51 41.91 147.20 59.80 C 149.90 73.23 149.06 87.45 144.29 100.33 C 138.19 117.16 125.67 131.53 109.89 139.97 C 95.58 147.77 78.65 150.31 62.61 147.67 C 47.43 145.15 33.13 137.65 22.40 126.61 C 10.22 114.34 2.65 97.62 1.47 80.37 C 0.11 62.66 5.47 44.52 16.28 30.42 C 29.16 13.25 49.84 2.27 71.29 1.32 M 68.65 116.49 C 59.68 111.35 50.80 106.05 41.77 101.04 C 48.05 97.59 54.31 94.07 60.43 90.34 C 61.06 85.73 60.60 80.72 60.58 75.97 C 50.46 82.14 39.95 87.64 29.80 93.75 C 29.88 98.59 29.85 103.43 29.81 108.26 C 42.63 115.75 55.43 123.30 68.33 130.65 C 72.55 131.27 76.90 130.69 81.17 130.89 C 81.05 98.30 81.28 65.70 80.94 33.12 C 90.11 38.24 99.09 43.70 108.29 48.77 C 102.18 52.62 95.67 55.84 89.56 59.69 C 89.20 64.44 89.55 69.23 89.43 74.00 C 99.59 67.77 110.20 62.31 120.32 56.04 C 120.18 51.34 120.15 46.62 120.34 41.92 C 107.69 34.07 94.66 26.81 81.80 19.30 C 77.58 18.09 72.97 19.10 68.60 18.78 C 68.68 51.35 68.43 83.92 68.65 116.49 Z" />
</g>
<g id="#000000ff">
<path fill="#000000" opacity="1.00" d=" M 68.65 116.49 C 68.43 83.92 68.68 51.35 68.60 18.78 C 72.97 19.10 77.58 18.09 81.80 19.30 C 94.66 26.81 107.69 34.07 120.34 41.92 C 120.15 46.62 120.18 51.34 120.32 56.04 C 110.20 62.31 99.59 67.77 89.43 74.00 C 89.55 69.23 89.20 64.44 89.56 59.69 C 95.67 55.84 102.18 52.62 108.29 48.77 C 99.09 43.70 90.11 38.24 80.94 33.12 C 81.28 65.70 81.05 98.30 81.17 130.89 C 76.90 130.69 72.55 131.27 68.33 130.65 C 55.43 123.30 42.63 115.75 29.81 108.26 C 29.85 103.43 29.88 98.59 29.80 93.75 C 39.95 87.64 50.46 82.14 60.58 75.97 C 60.60 80.72 61.06 85.73 60.43 90.34 C 54.31 94.07 48.05 97.59 41.77 101.04 C 50.80 106.05 59.68 111.35 68.65 116.49 Z" />
</g>
</svg>
