<?xml version="1.0" encoding="UTF-8" ?>
<!DOCTYPE svg PUBLIC "-//W3C//DTD SVG 1.1//EN" "http://www.w3.org/Graphics/SVG/1.1/DTD/svg11.dtd">
<svg width="40pt" height="40pt" viewBox="0 0 150 150" version="1.1" xmlns="http://www.w3.org/2000/svg">
<g id="#fad258ff">
<path fill="#fad258" opacity="1.00" d=" M 68.54 1.24 C 82.37 0.14 96.43 2.80 108.82 9.08 L 108.79 9.20 C 108.22 11.02 107.67 12.84 107.10 14.65 C 108.15 14.50 109.20 14.36 110.25 14.22 C 110.33 15.94 110.29 17.69 110.66 19.38 C 112.82 22.01 115.75 24.03 116.99 27.35 C 118.56 27.48 120.13 27.53 121.71 27.54 C 120.68 28.19 119.65 28.83 118.65 29.54 C 116.61 29.99 114.64 30.72 112.60 31.16 C 110.07 30.23 107.83 28.66 105.42 27.46 C 105.49 26.51 105.56 25.56 105.65 24.61 C 100.08 25.61 96.03 21.09 92.54 17.50 C 91.70 17.54 90.86 17.59 90.02 17.63 C 84.72 14.34 79.50 10.92 74.17 7.69 C 73.79 6.77 73.39 5.85 73.01 4.93 C 71.52 3.70 70.02 2.47 68.54 1.24 Z" />
</g>
<g id="#f3c34eff">
<path fill="#f3c34e" opacity="1.00" d=" M 48.06 6.27 C 54.45 3.23 61.57 2.08 68.54 1.24 C 70.02 2.47 71.52 3.70 73.01 4.93 C 73.39 5.85 73.79 6.77 74.17 7.69 C 79.50 10.92 84.72 14.34 90.02 17.63 C 90.86 17.59 91.70 17.54 92.54 17.50 C 96.03 21.09 100.08 25.61 105.65 24.61 C 105.56 25.56 105.49 26.51 105.42 27.46 C 107.83 28.66 110.07 30.23 112.60 31.16 C 114.64 30.72 116.61 29.99 118.65 29.54 C 117.75 30.22 116.86 30.91 115.98 31.61 C 108.65 35.92 101.49 40.52 94.38 45.18 C 88.79 40.75 84.97 34.48 79.00 30.47 C 78.50 28.37 77.88 26.31 77.33 24.22 C 76.63 20.01 75.93 15.79 75.00 11.63 C 74.81 12.24 74.62 12.86 74.44 13.48 C 74.21 14.28 73.75 15.90 73.52 16.70 C 72.66 19.94 71.90 23.19 71.21 26.46 C 70.69 24.99 70.12 23.54 69.54 22.10 C 66.61 19.79 63.88 17.22 60.65 15.33 C 56.23 12.82 52.51 9.30 48.14 6.72 L 48.06 6.27 Z" />
</g>
<g id="#d9a941ff">
<path fill="#d9a941" opacity="1.00" d=" M 39.29 10.13 C 41.93 8.93 44.41 7.22 47.27 6.59 L 48.14 6.72 C 52.51 9.30 56.23 12.82 60.65 15.33 C 63.88 17.22 66.61 19.79 69.54 22.10 C 70.12 23.54 70.69 24.99 71.21 26.46 C 70.82 28.49 70.33 30.49 69.80 32.48 C 68.73 34.85 67.92 37.32 67.40 39.86 C 66.85 36.72 66.58 33.15 64.07 30.85 C 61.85 28.73 59.41 26.83 57.25 24.64 C 51.85 19.09 43.91 16.52 39.29 10.13 Z" />
</g>
<g id="#c7973aff">
<path fill="#c7973a" opacity="1.00" d=" M 28.76 17.19 C 32.10 14.59 35.61 12.22 39.29 10.13 C 43.91 16.52 51.85 19.09 57.25 24.64 C 59.41 26.83 61.85 28.73 64.07 30.85 C 66.58 33.15 66.85 36.72 67.40 39.86 C 67.92 37.32 68.73 34.85 69.80 32.48 C 68.32 42.18 65.38 51.57 63.89 61.26 C 60.43 63.36 56.42 64.06 52.49 64.73 C 52.15 63.68 51.80 62.62 51.46 61.57 C 50.27 60.92 49.09 60.26 47.90 59.61 C 50.69 59.37 53.62 59.41 56.15 58.04 C 56.44 57.90 57.00 57.63 57.28 57.49 C 57.30 53.73 57.25 49.97 57.22 46.22 C 52.98 43.62 48.81 40.90 44.63 38.20 L 46.06 37.98 C 43.88 36.25 41.63 34.62 39.39 32.99 C 39.84 31.66 40.30 30.33 40.76 29.01 C 39.69 29.93 38.63 30.85 37.57 31.77 C 36.18 30.87 34.79 29.96 33.40 29.04 C 34.01 27.09 34.81 25.16 34.91 23.10 C 34.74 21.35 32.75 21.54 31.51 21.04 C 30.58 19.76 29.67 18.48 28.76 17.19 Z" />
</g>
<g id="#fad566ff">
<path fill="#fad566" opacity="1.00" d=" M 107.10 14.65 C 107.67 12.84 108.22 11.02 108.79 9.20 C 125.18 17.45 138.12 32.17 144.45 49.38 C 142.21 48.47 140.01 47.44 138.08 45.99 C 131.98 41.40 125.22 37.53 120.17 31.69 C 120.44 31.24 120.98 30.34 121.25 29.89 C 121.94 29.01 122.64 28.13 123.34 27.25 C 122.94 27.32 122.12 27.47 121.71 27.54 C 120.13 27.53 118.56 27.48 116.99 27.35 C 115.75 24.03 112.82 22.01 110.66 19.38 C 110.29 17.69 110.33 15.94 110.25 14.22 C 109.20 14.36 108.15 14.50 107.10 14.65 Z" />
</g>
<g id="#fcfcfcff">
<path fill="#fcfcfc" opacity="1.00" d=" M 74.44 13.48 C 74.62 12.86 74.81 12.24 75.00 11.63 C 75.93 15.79 76.63 20.01 77.33 24.22 C 75.75 31.69 76.08 39.47 78.01 46.84 C 79.33 51.83 79.53 57.26 82.18 61.81 C 82.93 63.40 84.82 63.56 86.31 63.98 C 96.88 66.14 107.23 69.21 117.75 71.58 C 121.74 72.58 125.75 73.50 129.68 74.71 C 129.31 74.84 128.58 75.08 128.22 75.21 C 119.36 75.39 110.50 75.24 101.65 75.34 C 92.90 75.23 84.16 75.35 75.41 75.28 C 75.72 75.58 76.33 76.19 76.63 76.50 C 75.73 79.58 75.24 82.79 75.38 86.01 C 75.57 94.17 75.38 102.35 75.81 110.51 C 75.62 111.73 75.41 112.96 75.20 114.19 C 75.09 113.91 74.87 113.37 74.76 113.10 C 74.28 99.73 74.83 86.35 74.50 72.97 C 74.66 53.14 74.36 33.31 74.44 13.48 M 75.92 52.31 C 75.18 59.37 75.48 66.51 75.68 73.60 C 77.88 72.12 79.79 70.25 81.39 68.14 C 78.41 63.26 78.96 57.09 75.92 52.31 Z" />
</g>
<g id="#4a4a4bff">
<path fill="#4a4a4b" opacity="1.00" d=" M 74.44 13.48 C 74.36 33.31 74.66 53.14 74.50 72.97 C 74.83 86.35 74.28 99.73 74.76 113.10 L 74.56 112.59 C 74.24 109.79 74.11 106.98 74.12 104.16 C 74.13 94.62 74.34 85.07 74.11 75.53 C 65.06 75.65 55.81 74.34 46.92 76.45 C 53.52 78.41 60.52 79.31 66.54 82.89 L 66.12 83.31 C 65.20 84.20 64.26 85.09 63.32 85.97 C 60.40 85.20 57.47 84.49 54.52 83.88 C 43.57 80.21 31.94 78.90 21.19 74.66 C 38.74 74.52 56.29 74.74 73.85 74.75 L 73.84 73.77 C 74.89 58.20 74.01 42.58 74.07 26.99 C 74.09 23.55 73.72 20.13 73.52 16.70 C 73.75 15.90 74.21 14.28 74.44 13.48 Z" />
</g>
<g id="#6a6a6cff">
<path fill="#6a6a6c" opacity="1.00" d=" M 71.21 26.46 C 71.90 23.19 72.66 19.94 73.52 16.70 C 73.72 20.13 74.09 23.55 74.07 26.99 C 74.01 42.58 74.89 58.20 73.84 73.77 C 73.50 73.39 72.81 72.62 72.46 72.24 C 74.14 64.41 73.55 56.30 72.94 48.38 C 71.89 50.81 71.17 53.36 70.70 55.96 C 69.96 59.82 68.23 63.37 67.03 67.09 C 66.65 66.72 65.90 65.99 65.53 65.62 C 65.02 65.13 64.01 64.17 63.51 63.68 C 63.60 63.08 63.79 61.87 63.89 61.26 C 65.38 51.57 68.32 42.18 69.80 32.48 C 70.33 30.49 70.82 28.49 71.21 26.46 Z" />
</g>
<g id="#b58a38ff">
<path fill="#b58a38" opacity="1.00" d=" M 8.65 42.16 C 13.50 32.54 20.33 23.91 28.76 17.19 C 29.67 18.48 30.58 19.76 31.51 21.04 C 32.75 21.54 34.74 21.35 34.91 23.10 C 34.81 25.16 34.01 27.09 33.40 29.04 C 34.79 29.96 36.18 30.87 37.57 31.77 C 38.63 30.85 39.69 29.93 40.76 29.01 C 40.30 30.33 39.84 31.66 39.39 32.99 C 41.63 34.62 43.88 36.25 46.06 37.98 L 44.63 38.20 C 43.32 37.45 42.02 36.69 40.72 35.92 C 36.05 33.16 31.66 29.95 26.98 27.21 C 27.53 27.83 28.09 28.44 28.66 29.04 C 29.80 34.52 33.95 38.60 36.56 43.39 C 39.87 48.10 42.26 53.53 46.16 57.78 C 49.47 58.19 52.83 58.10 56.15 58.04 C 53.62 59.41 50.69 59.37 47.90 59.61 C 49.09 60.26 50.27 60.92 51.46 61.57 C 51.80 62.62 52.15 63.68 52.49 64.73 C 56.42 64.06 60.43 63.36 63.89 61.26 C 63.79 61.87 63.60 63.08 63.51 63.68 C 58.95 64.84 54.41 66.08 49.78 66.92 C 46.31 66.08 42.87 67.24 39.41 67.35 C 35.88 65.85 33.87 62.30 31.17 59.76 C 27.09 55.18 19.95 54.87 16.48 49.58 C 14.63 46.39 11.72 44.09 8.65 42.16 Z" />
</g>
<g id="#d1d2d3ff">
<path fill="#d1d2d3" opacity="1.00" d=" M 77.33 24.22 C 77.88 26.31 78.50 28.37 79.00 30.47 C 81.37 41.66 83.79 52.83 86.31 63.98 C 84.82 63.56 82.93 63.40 82.18 61.81 C 79.53 57.26 79.33 51.83 78.01 46.84 C 76.08 39.47 75.75 31.69 77.33 24.22 Z" />
</g>
<g id="#ffffffff">
<path fill="#ffffff" opacity="1.00" d=" M 28.66 29.04 C 28.09 28.44 27.53 27.83 26.98 27.21 C 31.66 29.95 36.05 33.16 40.72 35.92 C 40.58 36.42 40.28 37.41 40.14 37.90 C 43.58 40.88 47.61 43.07 51.15 45.93 C 53.28 47.45 52.28 50.32 52.36 52.52 C 44.28 44.87 36.76 36.67 28.66 29.04 Z" />
</g>
<g id="#faf9f9ff">
<path fill="#faf9f9" opacity="1.00" d=" M 121.71 27.54 C 122.12 27.47 122.94 27.32 123.34 27.25 C 122.64 28.13 121.94 29.01 121.25 29.89 C 113.41 36.95 106.05 44.52 98.24 51.62 C 98.90 49.70 98.93 47.25 100.85 46.08 C 106.60 42.06 111.62 37.09 115.98 31.61 C 116.86 30.91 117.75 30.22 118.65 29.54 C 119.65 28.83 120.68 28.19 121.71 27.54 Z" />
<path fill="#faf9f9" opacity="1.00" d=" M 92.55 91.70 C 96.30 91.92 100.06 91.76 103.82 91.82 C 109.98 102.13 116.98 111.94 122.84 122.43 C 122.61 122.21 122.13 121.78 121.90 121.56 C 112.39 111.41 102.09 102.03 92.55 91.90 L 92.55 91.70 Z" />
</g>
<g id="#4a4b4dff">
<path fill="#4a4b4d" opacity="1.00" d=" M 28.66 29.04 C 36.76 36.67 44.28 44.87 52.36 52.52 C 54.03 54.15 55.68 55.80 57.28 57.49 C 57.00 57.63 56.44 57.90 56.15 58.04 C 52.83 58.10 49.47 58.19 46.16 57.78 C 42.26 53.53 39.87 48.10 36.56 43.39 C 33.95 38.60 29.80 34.52 28.66 29.04 Z" />
<path fill="#4a4b4d" opacity="1.00" d=" M 92.32 103.58 C 92.25 99.69 92.39 95.79 92.55 91.90 C 102.09 102.03 112.39 111.41 121.90 121.56 C 117.23 119.75 113.34 116.54 109.09 113.98 C 103.49 110.53 98.04 106.84 92.32 103.58 Z" />
</g>
<g id="#747374ff">
<path fill="#747374" opacity="1.00" d=" M 98.24 51.62 C 106.05 44.52 113.41 36.95 121.25 29.89 C 120.98 30.34 120.44 31.24 120.17 31.69 C 116.51 37.86 112.59 43.85 108.76 49.91 C 107.70 51.61 106.67 53.33 105.64 55.05 L 105.27 55.01 C 102.52 54.85 99.79 54.18 97.85 52.07 L 98.24 51.62 Z" />
</g>
<g id="#dca742ff">
<path fill="#dca742" opacity="1.00" d=" M 79.00 30.47 C 84.97 34.48 88.79 40.75 94.38 45.18 C 93.93 45.50 93.01 46.15 92.56 46.47 C 92.43 50.25 92.44 54.03 92.39 57.82 C 96.19 57.78 99.99 57.67 103.79 57.68 C 106.04 59.57 107.50 62.17 109.19 64.53 C 110.45 64.16 111.70 63.79 112.95 63.43 C 113.14 65.16 113.32 66.89 113.50 68.62 C 115.69 69.29 117.88 69.97 120.06 70.69 C 119.48 70.91 118.33 71.36 117.75 71.58 C 107.23 69.21 96.88 66.14 86.31 63.98 C 83.79 52.83 81.37 41.66 79.00 30.47 Z" />
</g>
<g id="#bfbfbfff">
<path fill="#bfbfbf" opacity="1.00" d=" M 94.38 45.18 C 101.49 40.52 108.65 35.92 115.98 31.61 C 111.62 37.09 106.60 42.06 100.85 46.08 C 98.93 47.25 98.90 49.70 98.24 51.62 L 97.85 52.07 C 97.66 52.27 97.29 52.68 97.10 52.88 C 95.71 51.62 94.31 50.37 92.89 49.14 C 92.80 48.47 92.64 47.14 92.56 46.47 C 93.01 46.15 93.93 45.50 94.38 45.18 Z" />
</g>
<g id="#f7c350ff">
<path fill="#f7c350" opacity="1.00" d=" M 108.76 49.91 C 112.59 43.85 116.51 37.86 120.17 31.69 C 125.22 37.53 131.98 41.40 138.08 45.99 C 140.01 47.44 142.21 48.47 144.45 49.38 C 148.45 59.90 149.54 71.31 148.70 82.48 C 147.39 82.37 145.89 82.96 144.68 82.30 C 143.91 80.77 144.62 78.92 144.58 77.27 C 143.44 75.74 142.30 74.20 141.19 72.66 C 139.62 72.35 138.04 72.06 136.47 71.76 C 136.17 70.39 135.89 69.02 135.58 67.65 C 131.28 66.24 128.73 62.46 125.47 59.63 C 121.84 57.65 118.40 54.93 114.22 54.29 C 113.12 51.97 111.45 50.14 108.76 49.91 Z" />
</g>
<g id="#d2d2d2ff">
<path fill="#d2d2d2" opacity="1.00" d=" M 40.72 35.92 C 42.02 36.69 43.32 37.45 44.63 38.20 C 48.81 40.90 52.98 43.62 57.22 46.22 C 57.25 49.97 57.30 53.73 57.28 57.49 C 55.68 55.80 54.03 54.15 52.36 52.52 C 52.28 50.32 53.28 47.45 51.15 45.93 C 47.61 43.07 43.58 40.88 40.14 37.90 C 40.28 37.41 40.58 36.42 40.72 35.92 Z" />
</g>
<g id="#a47c31ff">
<path fill="#a47c31" opacity="1.00" d=" M 5.28 50.26 C 6.25 47.50 7.38 44.80 8.65 42.16 C 11.72 44.09 14.63 46.39 16.48 49.58 C 19.95 54.87 27.09 55.18 31.17 59.76 C 33.87 62.30 35.88 65.85 39.41 67.35 C 42.87 67.24 46.31 66.08 49.78 66.92 C 44.47 68.50 39.08 69.80 33.70 71.14 C 33.30 70.87 32.50 70.35 32.09 70.09 C 24.35 66.89 19.78 59.49 12.85 55.11 C 10.35 53.46 7.77 51.92 5.28 50.26 Z" />
</g>
<g id="#505762ff">
<path fill="#505762" opacity="1.00" d=" M 92.39 57.82 C 92.44 54.03 92.43 50.25 92.56 46.47 C 92.64 47.14 92.80 48.47 92.89 49.14 C 92.95 51.79 92.88 54.44 92.84 57.10 C 94.29 55.72 95.74 54.34 97.10 52.88 C 97.29 52.68 97.66 52.27 97.85 52.07 C 99.79 54.18 102.52 54.85 105.27 55.01 C 104.77 55.90 104.28 56.79 103.79 57.68 C 99.99 57.67 96.19 57.78 92.39 57.82 Z" />
</g>
<g id="#888888ff">
<path fill="#888888" opacity="1.00" d=" M 70.70 55.96 C 71.17 53.36 71.89 50.81 72.94 48.38 C 73.55 56.30 74.14 64.41 72.46 72.24 C 70.63 70.53 68.80 68.85 67.03 67.09 C 68.23 63.37 69.96 59.82 70.70 55.96 Z" />
</g>
<g id="#97732bff">
<path fill="#97732b" opacity="1.00" d=" M 5.12 50.16 L 5.28 50.26 C 7.77 51.92 10.35 53.46 12.85 55.11 C 19.78 59.49 24.35 66.89 32.09 70.09 C 28.49 71.04 24.85 71.86 21.14 72.26 C 18.90 70.41 16.71 67.33 13.40 68.06 C 9.98 64.74 6.83 61.10 2.82 58.45 C 3.57 55.68 4.33 52.92 5.12 50.16 Z" />
</g>
<g id="#90949bff">
<path fill="#90949b" opacity="1.00" d=" M 92.89 49.14 C 94.31 50.37 95.71 51.62 97.10 52.88 C 95.74 54.34 94.29 55.72 92.84 57.10 C 92.88 54.44 92.95 51.79 92.89 49.14 Z" />
</g>
<g id="#edb649ff">
<path fill="#edb649" opacity="1.00" d=" M 105.64 55.05 C 106.67 53.33 107.70 51.61 108.76 49.91 C 111.45 50.14 113.12 51.97 114.22 54.29 C 118.40 54.93 121.84 57.65 125.47 59.63 C 128.73 62.46 131.28 66.24 135.58 67.65 C 135.89 69.02 136.17 70.39 136.47 71.76 C 138.04 72.06 139.62 72.35 141.19 72.66 C 142.30 74.20 143.44 75.74 144.58 77.27 C 144.62 78.92 143.91 80.77 144.68 82.30 C 145.89 82.96 147.39 82.37 148.70 82.48 C 147.95 87.36 147.27 92.29 145.66 96.97 L 145.15 97.11 C 144.97 96.78 144.60 96.12 144.41 95.80 C 144.48 94.40 144.64 93.00 144.79 91.61 C 143.11 91.62 141.44 91.62 139.76 91.60 C 138.77 88.69 137.19 86.06 135.51 83.51 C 133.51 80.44 133.11 76.28 129.97 74.01 C 127.66 72.31 125.40 70.48 123.93 67.96 C 119.28 67.68 117.51 63.15 115.57 59.64 C 113.08 58.64 110.67 57.40 108.78 55.46 C 107.73 55.32 106.69 55.17 105.64 55.05 Z" />
</g>
<g id="#dadadaff">
<path fill="#dadada" opacity="1.00" d=" M 75.92 52.31 C 78.96 57.09 78.41 63.26 81.39 68.14 C 79.79 70.25 77.88 72.12 75.68 73.60 C 75.48 66.51 75.18 59.37 75.92 52.31 Z" />
</g>
<g id="#e3ad46ff">
<path fill="#e3ad46" opacity="1.00" d=" M 105.27 55.01 L 105.64 55.05 C 106.69 55.17 107.73 55.32 108.78 55.46 C 110.67 57.40 113.08 58.64 115.57 59.64 C 117.51 63.15 119.28 67.68 123.93 67.96 C 125.40 70.48 127.66 72.31 129.97 74.01 C 133.11 76.28 133.51 80.44 135.51 83.51 C 137.19 86.06 138.77 88.69 139.76 91.60 C 141.44 91.62 143.11 91.62 144.79 91.61 C 144.64 93.00 144.48 94.40 144.41 95.80 C 144.60 96.12 144.97 96.78 145.15 97.11 L 145.25 97.91 C 144.83 99.82 144.07 101.63 143.37 103.46 C 139.41 101.12 135.58 98.54 131.44 96.52 C 131.10 95.48 130.77 94.44 130.44 93.40 C 129.47 93.38 128.49 93.36 127.52 93.34 C 126.71 91.66 125.99 89.70 123.90 89.34 C 118.24 87.69 114.48 82.86 109.32 80.25 C 115.60 78.48 122.08 77.46 128.22 75.21 C 128.58 75.08 129.31 74.84 129.68 74.71 C 125.75 73.50 121.74 72.58 117.75 71.58 C 118.33 71.36 119.48 70.91 120.06 70.69 C 117.88 69.97 115.69 69.29 113.50 68.62 C 113.32 66.89 113.14 65.16 112.95 63.43 C 111.70 63.79 110.45 64.16 109.19 64.53 C 107.50 62.17 106.04 59.57 103.79 57.68 C 104.28 56.79 104.77 55.90 105.27 55.01 Z" />
</g>
<g id="#866221ff">
<path fill="#866221" opacity="1.00" d=" M 2.82 58.45 C 6.83 61.10 9.98 64.74 13.40 68.06 C 16.71 67.33 18.90 70.41 21.14 72.26 C 24.85 71.86 28.49 71.04 32.09 70.09 C 32.50 70.35 33.30 70.87 33.70 71.14 C 29.36 72.27 24.96 73.19 20.66 74.47 L 21.19 74.66 C 31.94 78.90 43.57 80.21 54.52 83.88 C 46.34 83.95 38.72 80.27 30.56 80.17 C 32.18 81.59 34.17 82.43 36.28 82.81 C 36.79 83.97 37.26 85.15 37.87 86.26 C 39.39 86.91 41.03 87.21 42.62 87.63 C 42.79 88.93 42.96 90.23 43.12 91.53 C 47.29 89.07 52.22 89.69 56.79 90.29 C 56.85 90.62 56.96 91.26 57.02 91.59 C 53.37 91.69 49.73 91.72 46.08 91.74 C 45.81 92.16 45.26 93.00 44.99 93.42 C 42.00 97.97 39.16 102.62 36.15 107.17 L 36.08 105.24 C 34.36 107.12 32.87 109.18 31.59 111.38 C 30.34 108.87 28.25 107.02 25.52 106.29 C 21.16 104.93 18.03 101.54 14.87 98.44 C 12.93 98.34 10.93 98.43 9.07 97.77 C 7.61 96.83 6.91 95.12 5.90 93.77 C 5.37 93.96 4.30 94.33 3.77 94.52 L 3.48 94.63 C 0.62 82.80 0.11 70.35 2.82 58.45 Z" />
</g>
<g id="#cfd0d1ff">
<path fill="#cfd0d1" opacity="1.00" d=" M 49.78 66.92 C 54.41 66.08 58.95 64.84 63.51 63.68 C 64.01 64.17 65.02 65.13 65.53 65.62 C 65.12 66.24 64.31 67.48 63.91 68.10 C 54.32 69.54 45.03 74.03 35.15 72.60 C 34.79 72.23 34.06 71.50 33.70 71.14 C 39.08 69.80 44.47 68.50 49.78 66.92 Z" />
</g>
<g id="#dfdfdfff">
<path fill="#dfdfdf" opacity="1.00" d=" M 65.53 65.62 C 65.90 65.99 66.65 66.72 67.03 67.09 C 68.80 68.85 70.63 70.53 72.46 72.24 C 72.81 72.62 73.50 73.39 73.84 73.77 L 73.85 74.75 C 56.29 74.74 38.74 74.52 21.19 74.66 L 20.66 74.47 C 24.96 73.19 29.36 72.27 33.70 71.14 C 34.06 71.50 34.79 72.23 35.15 72.60 C 45.03 74.03 54.32 69.54 63.91 68.10 C 64.31 67.48 65.12 66.24 65.53 65.62 Z" />
</g>
<g id="#6c6c6cff">
<path fill="#6c6c6c" opacity="1.00" d=" M 46.92 76.45 C 55.81 74.34 65.06 75.65 74.11 75.53 C 71.42 77.81 68.96 80.33 66.54 82.89 C 60.52 79.31 53.52 78.41 46.92 76.45 Z" />
</g>
<g id="#707070ff">
<path fill="#707070" opacity="1.00" d=" M 75.41 75.28 C 84.16 75.35 92.90 75.23 101.65 75.34 C 103.39 76.02 105.08 76.81 106.79 77.58 C 101.48 78.83 96.01 79.68 90.97 81.86 C 89.16 82.46 88.25 84.20 87.28 85.68 C 86.99 85.81 86.42 86.07 86.14 86.20 C 85.11 85.12 84.08 84.04 83.04 82.97 C 82.72 82.65 82.09 82.01 81.78 81.69 C 86.52 81.05 90.68 78.47 95.27 77.28 C 89.55 76.35 83.57 75.96 77.98 77.83 C 77.64 77.49 76.97 76.83 76.63 76.50 C 76.33 76.19 75.72 75.58 75.41 75.28 Z" />
</g>
<g id="#5a5b60ff">
<path fill="#5a5b60" opacity="1.00" d=" M 101.65 75.34 C 110.50 75.24 119.36 75.39 128.22 75.21 C 122.08 77.46 115.60 78.48 109.32 80.25 C 101.94 81.92 94.65 83.99 87.28 85.68 C 88.25 84.20 89.16 82.46 90.97 81.86 C 96.01 79.68 101.48 78.83 106.79 77.58 C 105.08 76.81 103.39 76.02 101.65 75.34 Z" />
</g>
<g id="#878787ff">
<path fill="#878787" opacity="1.00" d=" M 66.54 82.89 C 68.96 80.33 71.42 77.81 74.11 75.53 C 74.34 85.07 74.13 94.62 74.12 104.16 C 73.69 104.29 72.82 104.55 72.39 104.67 C 70.62 97.49 70.40 89.61 66.12 83.31 L 66.54 82.89 Z" />
<path fill="#878787" opacity="1.00" d=" M 77.98 77.83 C 83.57 75.96 89.55 76.35 95.27 77.28 C 90.68 78.47 86.52 81.05 81.78 81.69 C 80.52 80.40 79.25 79.11 77.98 77.83 Z" />
</g>
<g id="#dcdcdcff">
<path fill="#dcdcdc" opacity="1.00" d=" M 76.63 76.50 C 76.97 76.83 77.64 77.49 77.98 77.83 C 79.25 79.11 80.52 80.40 81.78 81.69 C 82.09 82.01 82.72 82.65 83.04 82.97 C 79.26 91.75 78.97 101.52 75.81 110.51 C 75.38 102.35 75.57 94.17 75.38 86.01 C 75.24 82.79 75.73 79.58 76.63 76.50 Z" />
</g>
<g id="#9c762aff">
<path fill="#9c762a" opacity="1.00" d=" M 30.56 80.17 C 38.72 80.27 46.34 83.95 54.52 83.88 C 57.47 84.49 60.40 85.20 63.32 85.97 C 64.28 90.73 65.38 95.47 66.12 100.27 C 65.64 105.60 67.15 110.76 67.86 115.99 C 66.46 112.36 64.86 108.72 62.07 105.92 C 60.17 104.05 59.19 101.55 58.43 99.04 C 58.06 100.39 57.70 101.75 57.32 103.09 C 57.32 102.41 57.34 101.04 57.34 100.35 C 57.31 97.62 57.19 94.88 57.05 92.15 L 57.02 91.59 C 56.96 91.26 56.85 90.62 56.79 90.29 C 52.22 89.69 47.29 89.07 43.12 91.53 C 42.96 90.23 42.79 88.93 42.62 87.63 C 41.03 87.21 39.39 86.91 37.87 86.26 C 37.26 85.15 36.79 83.97 36.28 82.81 C 34.17 82.43 32.18 81.59 30.56 80.17 Z" />
</g>
<g id="#cf9e3fff">
<path fill="#cf9e3f" opacity="1.00" d=" M 87.28 85.68 C 94.65 83.99 101.94 81.92 109.32 80.25 C 114.48 82.86 118.24 87.69 123.90 89.34 C 125.99 89.70 126.71 91.66 127.52 93.34 C 128.49 93.36 129.47 93.38 130.44 93.40 C 130.77 94.44 131.10 95.48 131.44 96.52 C 135.58 98.54 139.41 101.12 143.37 103.46 C 139.82 111.93 134.63 119.63 128.36 126.33 C 126.49 125.09 124.55 123.90 122.84 122.43 C 116.98 111.94 109.98 102.13 103.82 91.82 C 100.06 91.76 96.30 91.92 92.55 91.70 C 90.31 90.28 88.12 88.78 85.79 87.53 C 85.88 87.20 86.05 86.53 86.14 86.20 C 86.42 86.07 86.99 85.81 87.28 85.68 Z" />
</g>
<g id="#c5c6c7ff">
<path fill="#c5c6c7" opacity="1.00" d=" M 83.04 82.97 C 84.08 84.04 85.11 85.12 86.14 86.20 C 86.05 86.53 85.88 87.20 85.79 87.53 C 84.82 91.84 83.99 96.18 83.03 100.48 C 82.03 105.04 80.80 109.56 80.13 114.19 C 78.03 121.89 76.92 129.84 74.64 137.49 C 74.59 135.90 74.51 134.32 74.43 132.73 C 74.88 126.02 74.56 119.30 74.56 112.59 L 74.76 113.10 C 74.87 113.37 75.09 113.91 75.20 114.19 C 75.41 112.96 75.62 111.73 75.81 110.51 C 78.97 101.52 79.26 91.75 83.04 82.97 Z" />
</g>
<g id="#606062ff">
<path fill="#606062" opacity="1.00" d=" M 63.32 85.97 C 64.26 85.09 65.20 84.20 66.12 83.31 C 70.40 89.61 70.62 97.49 72.39 104.67 C 72.82 104.55 73.69 104.29 74.12 104.16 C 74.11 106.98 74.24 109.79 74.56 112.59 C 74.56 119.30 74.88 126.02 74.43 132.73 C 73.27 129.32 72.02 125.94 71.13 122.45 C 69.78 114.99 68.29 107.54 66.12 100.27 C 65.38 95.47 64.28 90.73 63.32 85.97 Z" />
</g>
<g id="#b08532ff">
<path fill="#b08532" opacity="1.00" d=" M 85.79 87.53 C 88.12 88.78 90.31 90.28 92.55 91.70 L 92.55 91.90 C 92.39 95.79 92.25 99.69 92.32 103.58 C 98.04 106.84 103.49 110.53 109.09 113.98 C 113.34 116.54 117.23 119.75 121.90 121.56 C 122.13 121.78 122.61 122.21 122.84 122.43 C 124.55 123.90 126.49 125.09 128.36 126.33 C 126.08 128.62 123.66 130.77 121.19 132.85 C 117.28 129.73 113.37 126.23 108.26 125.36 C 102.00 117.22 92.14 113.35 84.45 106.82 C 83.99 104.71 83.52 102.59 83.03 100.48 C 83.99 96.18 84.82 91.84 85.79 87.53 Z" />
</g>
<g id="#f4f3f3ff">
<path fill="#f4f3f3" opacity="1.00" d=" M 44.99 93.42 C 45.26 93.00 45.81 92.16 46.08 91.74 C 49.73 91.72 53.37 91.69 57.02 91.59 L 57.05 92.15 C 54.55 95.22 51.68 97.97 48.76 100.64 C 45.77 103.39 42.96 106.33 40.02 109.14 L 38.40 109.49 C 41.01 105.30 44.71 101.71 46.38 97.00 C 45.97 95.78 45.51 94.59 44.99 93.42 Z" />
</g>
<g id="#808080ff">
<path fill="#808080" opacity="1.00" d=" M 48.76 100.64 C 51.68 97.97 54.55 95.22 57.05 92.15 C 57.19 94.88 57.31 97.62 57.34 100.35 C 54.39 100.81 51.53 101.71 48.77 102.84 C 48.77 102.29 48.76 101.19 48.76 100.64 Z" />
</g>
<g id="#765317ff">
<path fill="#765317" opacity="1.00" d=" M 3.77 94.52 C 4.30 94.33 5.37 93.96 5.90 93.77 C 6.91 95.12 7.61 96.83 9.07 97.77 C 10.93 98.43 12.93 98.34 14.87 98.44 C 18.03 101.54 21.16 104.93 25.52 106.29 C 28.25 107.02 30.34 108.87 31.59 111.38 C 32.87 109.18 34.36 107.12 36.08 105.24 L 36.15 107.17 C 33.12 112.34 29.60 117.21 26.59 122.40 C 27.88 121.38 29.17 120.36 30.36 119.24 C 35.38 117.46 39.62 114.18 44.19 111.55 C 42.99 112.87 41.85 114.23 40.71 115.59 C 44.34 118.35 46.81 122.97 51.61 123.84 C 51.51 124.76 51.41 125.69 51.31 126.61 C 53.53 128.74 55.93 130.75 58.78 131.97 C 56.94 136.69 55.05 141.54 51.44 145.23 C 28.55 137.52 9.65 118.08 3.77 94.52 Z" />
</g>
<g id="#cbcbcaff">
<path fill="#cbcbca" opacity="1.00" d=" M 36.15 107.17 C 39.16 102.62 42.00 97.97 44.99 93.42 C 45.51 94.59 45.97 95.78 46.38 97.00 C 44.71 101.71 41.01 105.30 38.40 109.49 L 40.02 109.14 C 36.76 112.47 33.34 115.65 30.36 119.24 C 29.17 120.36 27.88 121.38 26.59 122.40 C 29.60 117.21 33.12 112.34 36.15 107.17 Z" />
</g>
<g id="#8a6621ff">
<path fill="#8a6621" opacity="1.00" d=" M 58.43 99.04 C 59.19 101.55 60.17 104.05 62.07 105.92 C 64.86 108.72 66.46 112.36 67.86 115.99 C 67.15 110.76 65.64 105.60 66.12 100.27 C 68.29 107.54 69.78 114.99 71.13 122.45 C 71.35 127.65 72.22 132.79 73.24 137.89 C 69.84 135.90 69.08 131.42 65.65 129.43 C 63.10 127.94 61.17 125.73 60.11 122.97 C 57.67 121.34 55.22 119.73 52.80 118.08 C 52.35 116.92 51.90 115.78 51.45 114.63 C 50.07 113.74 48.69 112.85 47.31 111.96 C 47.82 110.82 48.32 109.67 48.82 108.54 C 51.66 106.74 54.58 105.06 57.32 103.09 C 57.70 101.75 58.06 100.39 58.43 99.04 Z" />
</g>
<g id="#696969ff">
<path fill="#696969" opacity="1.00" d=" M 48.77 102.84 C 51.53 101.71 54.39 100.81 57.34 100.35 C 57.34 101.04 57.32 102.41 57.32 103.09 C 54.58 105.06 51.66 106.74 48.82 108.54 C 47.27 109.52 45.72 110.53 44.19 111.55 C 39.62 114.18 35.38 117.46 30.36 119.24 C 33.34 115.65 36.76 112.47 40.02 109.14 C 42.96 106.33 45.77 103.39 48.76 100.64 C 48.76 101.19 48.77 102.29 48.77 102.84 Z" />
</g>
<g id="#9c7528ff">
<path fill="#9c7528" opacity="1.00" d=" M 83.03 100.48 C 83.52 102.59 83.99 104.71 84.45 106.82 C 92.14 113.35 102.00 117.22 108.26 125.36 C 113.37 126.23 117.28 129.73 121.19 132.85 C 114.80 137.93 107.57 141.90 99.92 144.73 C 99.39 144.47 98.32 143.97 97.79 143.71 C 97.54 142.93 97.29 142.16 97.04 141.38 C 95.86 141.48 94.69 141.59 93.52 141.69 C 93.22 140.42 92.92 139.15 92.62 137.89 C 91.53 139.11 90.45 140.33 89.38 141.56 C 89.21 139.80 89.11 138.02 88.73 136.28 C 85.73 133.97 80.93 133.56 79.65 129.40 C 78.29 124.32 82.22 119.24 80.13 114.19 C 80.80 109.56 82.03 105.04 83.03 100.48 Z" />
</g>
<g id="#7f5b1cff">
<path fill="#7f5b1c" opacity="1.00" d=" M 44.19 111.55 C 45.72 110.53 47.27 109.52 48.82 108.54 C 48.32 109.67 47.82 110.82 47.31 111.96 C 48.69 112.85 50.07 113.74 51.45 114.63 C 51.90 115.78 52.35 116.92 52.80 118.08 C 55.22 119.73 57.67 121.34 60.11 122.97 C 61.17 125.73 63.10 127.94 65.65 129.43 C 69.08 131.42 69.84 135.90 73.24 137.89 L 74.35 138.57 C 77.00 139.81 79.09 141.83 80.91 144.08 C 82.60 146.33 85.55 146.66 88.07 147.31 L 88.22 147.32 C 87.24 148.22 85.84 148.25 84.60 148.44 C 73.47 149.73 62.10 148.70 51.44 145.23 C 55.05 141.54 56.94 136.69 58.78 131.97 C 55.93 130.75 53.53 128.74 51.31 126.61 C 51.41 125.69 51.51 124.76 51.61 123.84 C 46.81 122.97 44.34 118.35 40.71 115.59 C 41.85 114.23 42.99 112.87 44.19 111.55 Z" />
</g>
<g id="#8c6621ff">
<path fill="#8c6621" opacity="1.00" d=" M 80.13 114.19 C 82.22 119.24 78.29 124.32 79.65 129.40 C 80.93 133.56 85.73 133.97 88.73 136.28 C 89.11 138.02 89.21 139.80 89.38 141.56 C 90.45 140.33 91.53 139.11 92.62 137.89 C 92.92 139.15 93.22 140.42 93.52 141.69 C 94.69 141.59 95.86 141.48 97.04 141.38 C 97.29 142.16 97.54 142.93 97.79 143.71 C 98.32 143.97 99.39 144.47 99.92 144.73 C 96.10 145.85 92.28 147.57 88.22 147.32 L 88.07 147.31 C 85.55 146.66 82.60 146.33 80.91 144.08 C 79.09 141.83 77.00 139.81 74.35 138.57 L 74.64 137.49 C 76.92 129.84 78.03 121.89 80.13 114.19 Z" />
</g>
<g id="#6a4d19ff">
<path fill="#6a4d19" opacity="1.00" d=" M 71.13 122.45 C 72.02 125.94 73.27 129.32 74.43 132.73 C 74.51 134.32 74.59 135.90 74.64 137.49 L 74.35 138.57 L 73.24 137.89 C 72.22 132.79 71.35 127.65 71.13 122.45 Z" />
</g>
</svg>
