<?xml version="1.0" encoding="UTF-8" ?>
<!DOCTYPE svg PUBLIC "-//W3C//DTD SVG 1.1//EN" "http://www.w3.org/Graphics/SVG/1.1/DTD/svg11.dtd">
<svg width="40pt" height="40pt" viewBox="0 0 160 160" version="1.1" xmlns="http://www.w3.org/2000/svg">
<g id="#141160ff">
<path fill="#141160" opacity="1.00" d=" M 76.43 0.00 L 81.71 0.00 C 100.00 0.44 118.07 7.21 131.93 19.18 C 139.33 25.41 145.34 33.12 150.23 41.44 C 156.58 60.41 155.31 81.81 146.43 99.77 C 146.39 96.93 146.80 94.13 147.40 91.36 C 149.19 80.97 148.23 70.27 145.72 60.07 C 145.56 59.70 145.26 58.95 145.11 58.57 C 138.99 40.43 125.14 25.05 107.59 17.35 C 103.83 15.59 99.82 14.10 95.59 14.41 C 74.32 7.00 49.45 10.19 31.41 23.93 C 29.93 24.90 28.51 25.96 27.18 27.13 C 25.90 25.93 24.62 24.74 23.34 23.54 C 37.33 9.44 56.62 1.01 76.43 0.00 M 123.42 22.15 C 122.92 23.76 123.47 24.33 125.07 23.86 C 125.59 22.20 125.04 21.63 123.42 22.15 Z" />
</g>
<g id="#ab78e1ff">
<path fill="#ab78e1" opacity="1.00" d=" M 31.41 23.93 C 49.45 10.19 74.32 7.00 95.59 14.41 C 109.08 19.63 121.48 28.54 129.16 40.97 C 136.42 52.83 139.15 67.34 136.81 81.03 C 136.61 81.89 136.33 82.71 135.96 83.51 C 135.69 83.93 135.14 84.78 134.87 85.21 C 134.85 85.85 134.81 87.12 134.79 87.76 C 134.71 88.44 134.56 89.80 134.49 90.48 C 132.32 94.97 130.22 99.51 127.37 103.62 C 127.36 102.13 127.58 100.64 128.27 99.31 C 133.89 87.82 135.48 74.38 132.35 61.95 C 129.05 46.42 118.58 33.06 105.17 24.84 C 87.17 13.42 63.77 10.95 43.89 18.76 C 39.62 20.23 35.90 23.07 31.41 23.93 Z" />
<path fill="#ab78e1" opacity="1.00" d=" M 56.36 55.90 C 63.26 49.94 72.58 47.83 81.52 48.73 C 93.36 51.50 104.10 61.35 105.16 73.89 C 105.16 79.96 103.30 86.04 99.30 90.68 C 99.94 85.78 101.88 81.02 101.12 76.00 C 99.93 61.92 85.61 51.65 71.99 52.30 C 66.50 52.08 61.61 54.86 56.36 55.90 Z" />
<path fill="#ab78e1" opacity="1.00" d=" M 3.13 84.97 C 5.02 74.41 8.67 63.88 15.18 55.25 L 15.22 56.76 C 14.66 57.99 14.07 59.20 13.49 60.42 C 4.72 78.39 3.46 99.77 9.85 118.70 C 12.88 128.76 18.51 137.79 24.95 146.00 C 12.76 134.90 4.58 119.63 1.52 103.47 C 2.39 97.33 1.91 91.07 3.13 84.97 Z" />
<path fill="#ab78e1" opacity="1.00" d=" M 66.63 80.99 C 67.46 74.23 72.46 67.06 80.06 67.62 C 80.74 67.90 82.11 68.47 82.79 68.75 C 82.07 68.78 80.61 68.83 79.88 68.85 C 76.90 68.89 74.13 70.23 72.06 72.34 C 67.86 77.78 69.06 86.29 74.83 90.19 C 76.39 91.15 78.06 91.98 79.87 92.35 C 82.60 92.76 85.36 92.51 88.03 91.84 L 89.39 92.09 C 86.39 95.22 82.13 96.56 77.86 96.45 C 71.56 94.07 66.24 88.02 66.63 80.99 Z" />
<path fill="#ab78e1" opacity="1.00" d=" M 56.05 71.02 C 56.69 70.25 57.28 69.03 58.55 69.37 C 56.26 73.01 55.05 77.23 55.04 81.53 C 54.56 87.29 55.43 93.40 58.73 98.28 C 63.16 105.50 71.12 109.90 79.30 111.39 C 88.00 113.77 97.58 112.05 105.24 107.42 C 103.46 110.71 99.86 112.18 96.63 113.65 C 81.50 120.05 61.56 114.13 53.82 99.27 C 49.20 90.40 50.26 79.10 56.05 71.02 Z" />
</g>
<g id="#814fc1ff">
<path fill="#814fc1" opacity="1.00" d=" M 43.89 18.76 C 63.77 10.95 87.17 13.42 105.17 24.84 C 118.58 33.06 129.05 46.42 132.35 61.95 C 135.48 74.38 133.89 87.82 128.27 99.31 C 127.58 100.64 127.36 102.13 127.37 103.62 C 120.89 113.77 110.19 120.67 98.74 123.95 C 98.69 124.48 98.59 125.53 98.54 126.06 C 98.28 124.98 98.00 123.92 97.72 122.85 L 97.38 123.98 C 85.35 126.82 72.88 123.73 62.15 118.10 C 56.45 113.02 50.38 107.92 47.26 100.74 C 39.90 85.96 43.67 66.54 56.36 55.90 C 61.61 54.86 66.50 52.08 71.99 52.30 C 85.61 51.65 99.93 61.92 101.12 76.00 C 101.88 81.02 99.94 85.78 99.30 90.68 C 94.71 96.30 87.00 98.57 79.98 97.26 C 79.45 97.05 78.39 96.65 77.86 96.45 C 82.13 96.56 86.39 95.22 89.39 92.09 L 88.03 91.84 C 96.07 88.23 99.92 78.33 96.91 70.13 C 94.34 63.08 87.13 58.82 79.97 57.80 C 71.19 56.82 62.81 61.84 58.55 69.37 C 57.28 69.03 56.69 70.25 56.05 71.02 C 50.26 79.10 49.20 90.40 53.82 99.27 C 61.56 114.13 81.50 120.05 96.63 113.65 C 99.86 112.18 103.46 110.71 105.24 107.42 C 113.87 101.60 120.30 92.66 122.94 82.58 C 126.78 69.44 123.91 54.66 115.67 43.76 C 107.36 33.47 95.50 26.02 82.54 23.29 C 67.02 19.95 50.23 23.26 37.15 32.24 C 29.92 36.97 24.44 43.71 19.19 50.43 C 16.92 50.21 15.82 54.06 18.75 53.18 C 17.49 54.29 16.28 55.46 15.22 56.76 L 15.18 55.25 C 8.67 63.88 5.02 74.41 3.13 84.97 C 1.91 91.07 2.39 97.33 1.52 103.47 C 0.84 100.06 0.53 96.59 0.00 93.15 L 0.00 76.18 C 0.20 74.84 0.45 73.53 0.64 72.20 C 2.79 68.95 3.13 64.99 4.50 61.42 C 8.93 48.26 17.05 36.55 27.18 27.13 C 28.51 25.96 29.93 24.90 31.41 23.93 C 35.90 23.07 39.62 20.23 43.89 18.76 Z" />
</g>
<g id="#241b7aff">
<path fill="#241b7a" opacity="1.00" d=" M 95.59 14.41 C 99.82 14.10 103.83 15.59 107.59 17.35 C 125.14 25.05 138.99 40.43 145.11 58.57 C 142.68 58.80 144.32 62.30 145.72 60.07 C 148.23 70.27 149.19 80.97 147.40 91.36 C 146.80 94.13 146.39 96.93 146.43 99.77 C 145.17 102.70 143.45 105.39 141.75 108.08 C 133.70 120.30 122.17 130.69 108.00 135.09 C 98.85 138.17 88.92 138.67 79.44 137.09 C 85.24 135.69 91.34 136.03 97.04 134.09 C 114.52 128.33 129.12 113.84 134.19 96.03 C 134.71 94.22 134.43 92.32 134.49 90.48 C 134.56 89.80 134.71 88.44 134.79 87.76 C 136.65 88.30 138.16 87.32 139.40 86.04 C 138.50 84.87 137.45 83.84 135.96 83.51 C 136.33 82.71 136.61 81.89 136.81 81.03 C 139.15 67.34 136.42 52.83 129.16 40.97 C 121.48 28.54 109.08 19.63 95.59 14.41 M 134.97 110.00 C 137.17 111.51 138.70 108.24 136.66 107.11 C 135.37 107.50 134.24 108.46 134.97 110.00 Z" />
<path fill="#241b7a" opacity="1.00" d=" M 13.49 60.42 C 13.98 65.04 12.01 69.43 11.94 74.02 C 10.83 87.94 13.62 102.23 20.77 114.29 C 25.91 123.52 33.77 130.81 41.98 137.28 C 42.21 138.77 43.59 139.71 45.05 139.06 C 51.26 141.86 57.37 146.07 64.48 145.63 C 72.08 148.02 79.98 149.72 87.99 149.47 C 103.44 149.72 118.76 144.10 130.76 134.44 C 131.66 133.74 132.54 133.03 133.39 132.28 C 134.29 133.88 135.19 135.49 136.09 137.09 C 122.63 150.55 104.19 158.56 85.28 160.00 L 74.90 160.00 C 60.93 158.88 47.16 154.44 35.53 146.54 C 24.90 139.48 16.15 129.77 9.85 118.70 C 3.46 99.77 4.72 78.39 13.49 60.42 Z" />
</g>
<g id="#21cffeff">
<path fill="#21cffe" opacity="1.00" d=" M 150.23 41.44 C 147.13 31.25 141.50 22.05 134.86 13.81 C 149.41 26.97 158.21 45.97 159.73 65.45 C 158.52 81.38 152.71 97.26 142.08 109.31 L 141.75 108.08 C 143.45 105.39 145.17 102.70 146.43 99.77 C 155.31 81.81 156.58 60.41 150.23 41.44 Z" />
<path fill="#21cffe" opacity="1.00" d=" M 55.56 50.97 C 67.39 39.00 88.45 39.21 100.97 50.06 C 108.34 55.70 111.53 65.23 111.12 74.28 C 111.05 74.64 110.91 75.36 110.84 75.72 C 109.20 81.50 107.01 87.97 101.45 91.10 C 104.28 85.87 105.85 79.85 105.16 73.89 C 104.10 61.35 93.36 51.50 81.52 48.73 C 73.39 46.36 64.49 47.63 56.96 51.35 L 55.56 50.97 Z" />
<path fill="#21cffe" opacity="1.00" d=" M 36.69 51.36 C 36.86 53.89 35.14 55.93 34.08 58.08 C 22.86 79.28 27.74 107.41 45.04 123.92 C 65.00 144.29 98.33 150.01 123.71 136.81 C 125.97 135.83 128.14 133.85 130.76 134.44 C 118.76 144.10 103.44 149.72 87.99 149.47 C 79.98 149.72 72.08 148.02 64.48 145.63 C 54.51 141.73 45.16 136.00 37.85 128.11 C 28.60 118.49 23.33 105.41 22.41 92.16 C 22.41 91.84 22.42 91.19 22.43 90.86 C 22.13 84.95 23.04 79.10 24.44 73.38 C 26.99 65.30 31.11 57.74 36.69 51.36 Z" />
<path fill="#21cffe" opacity="1.00" d=" M 76.29 62.48 C 77.52 62.56 78.75 62.67 79.98 62.83 C 86.17 64.61 92.16 69.32 93.15 76.02 C 94.87 83.98 88.40 93.02 79.87 92.35 C 78.06 91.98 76.39 91.15 74.83 90.19 C 76.47 90.69 78.15 91.07 79.85 91.30 C 86.98 91.49 92.07 83.58 90.17 77.03 C 89.39 73.17 86.23 70.36 82.79 68.75 C 82.11 68.47 80.74 67.90 80.06 67.62 C 77.10 67.20 74.08 67.45 71.27 68.47 C 72.32 66.01 74.39 64.26 76.29 62.48 Z" />
</g>
<g id="#33248eff">
<path fill="#33248e" opacity="1.00" d=" M 37.15 32.24 C 50.23 23.26 67.02 19.95 82.54 23.29 C 77.72 23.96 72.82 23.81 68.03 24.70 C 66.34 23.41 63.97 23.63 63.52 26.03 C 56.70 28.09 50.48 31.66 44.59 35.61 C 41.85 37.51 40.07 40.42 37.71 42.73 C 33.32 46.99 30.48 52.51 28.01 58.03 C 26.05 62.91 24.03 68.01 24.44 73.38 C 23.04 79.10 22.13 84.95 22.43 90.86 C 21.65 91.51 20.87 92.17 20.10 92.82 C 18.92 92.24 17.76 91.64 16.62 90.99 C 17.39 91.91 18.15 92.82 18.91 93.74 C 18.22 94.84 17.53 95.94 16.81 97.02 C 18.52 95.86 20.35 94.59 22.34 96.28 C 20.94 94.70 20.96 93.33 22.41 92.16 C 23.33 105.41 28.60 118.49 37.85 128.11 C 45.16 136.00 54.51 141.73 64.48 145.63 C 57.37 146.07 51.26 141.86 45.05 139.06 C 46.01 136.85 43.33 135.22 41.98 137.28 C 33.77 130.81 25.91 123.52 20.77 114.29 C 13.62 102.23 10.83 87.94 11.94 74.02 C 12.01 69.43 13.98 65.04 13.49 60.42 C 14.07 59.20 14.66 57.99 15.22 56.76 C 16.28 55.46 17.49 54.29 18.75 53.18 C 18.86 52.49 19.08 51.12 19.19 50.43 C 24.44 43.71 29.92 36.97 37.15 32.24 Z" />
<path fill="#33248e" opacity="1.00" d=" M 127.37 103.62 C 130.22 99.51 132.32 94.97 134.49 90.48 C 134.43 92.32 134.71 94.22 134.19 96.03 C 129.12 113.84 114.52 128.33 97.04 134.09 C 91.34 136.03 85.24 135.69 79.44 137.09 C 65.64 134.80 52.93 126.98 44.22 116.10 C 45.88 113.83 47.76 111.74 49.82 109.82 C 53.38 113.30 57.39 116.46 62.15 118.10 C 72.88 123.73 85.35 126.82 97.38 123.98 C 97.22 125.18 97.08 126.39 96.96 127.59 C 95.31 127.82 93.49 127.73 92.11 128.83 C 93.73 128.94 95.36 129.02 96.99 129.06 C 97.17 130.57 97.39 132.08 97.64 133.58 C 98.41 132.19 98.65 130.61 98.84 129.05 C 100.43 129.02 102.02 128.96 103.61 128.87 C 102.45 127.46 100.45 127.93 98.87 127.61 C 98.79 127.23 98.62 126.45 98.54 126.06 C 98.59 125.53 98.69 124.48 98.74 123.95 C 110.19 120.67 120.89 113.77 127.37 103.62 Z" />
</g>
<g id="#969098ff">
<path fill="#969098" opacity="1.00" d=" M 123.42 22.15 C 125.04 21.63 125.59 22.20 125.07 23.86 C 123.47 24.33 122.92 23.76 123.42 22.15 Z" />
</g>
<g id="#432da0ff">
<path fill="#432da0" opacity="1.00" d=" M 82.54 23.29 C 95.50 26.02 107.36 33.47 115.67 43.76 C 114.13 44.84 112.62 45.97 111.12 47.11 C 109.72 46.05 108.30 45.02 106.80 44.11 C 107.77 45.64 108.86 47.09 110.01 48.49 C 109.13 49.37 108.26 50.25 107.38 51.14 C 100.10 42.43 89.37 36.73 78.12 35.36 C 62.79 33.31 46.67 39.55 36.69 51.36 C 31.11 57.74 26.99 65.30 24.44 73.38 C 24.03 68.01 26.05 62.91 28.01 58.03 C 30.48 52.51 33.32 46.99 37.71 42.73 C 40.07 40.42 41.85 37.51 44.59 35.61 C 50.48 31.66 56.70 28.09 63.52 26.03 C 64.60 26.57 65.72 27.00 66.89 27.31 C 67.17 26.66 67.74 25.35 68.03 24.70 C 72.82 23.81 77.72 23.96 82.54 23.29 M 43.24 37.20 C 41.70 40.22 46.53 37.34 43.24 37.20 Z" />
</g>
<g id="#231a79fe">
<path fill="#231a79" opacity="1.00" d=" M 0.64 72.20 C 1.73 53.92 10.52 36.45 23.34 23.54 C 24.62 24.74 25.90 25.93 27.18 27.13 C 17.05 36.55 8.93 48.26 4.50 61.42 C 3.13 64.99 2.79 68.95 0.64 72.20 Z" />
</g>
<g id="#cabfb7ff">
<path fill="#cabfb7" opacity="1.00" d=" M 63.52 26.03 C 63.97 23.63 66.34 23.41 68.03 24.70 C 67.74 25.35 67.17 26.66 66.89 27.31 C 65.72 27.00 64.60 26.57 63.52 26.03 Z" />
</g>
<g id="#14a2f2ff">
<path fill="#14a2f2" opacity="1.00" d=" M 36.69 51.36 C 46.67 39.55 62.79 33.31 78.12 35.36 C 89.37 36.73 100.10 42.43 107.38 51.14 C 107.58 51.39 108.00 51.89 108.20 52.14 C 120.08 66.30 118.97 89.22 105.71 102.12 C 100.44 103.30 95.49 106.03 89.96 105.90 C 84.22 105.84 77.89 104.91 73.57 100.79 C 75.69 101.30 77.81 101.79 79.96 102.20 C 88.66 103.28 96.91 98.32 101.45 91.10 C 107.01 87.97 109.20 81.50 110.84 75.72 C 111.41 76.08 112.56 76.79 113.14 77.14 C 113.81 76.43 114.49 75.73 115.17 75.02 C 114.48 74.25 113.79 73.49 113.10 72.72 C 112.61 73.11 111.62 73.89 111.12 74.28 C 111.53 65.23 108.34 55.70 100.97 50.06 C 88.45 39.21 67.39 39.00 55.56 50.97 L 56.96 51.35 C 47.33 56.66 40.38 66.12 37.28 76.58 C 33.24 89.87 35.85 104.99 44.22 116.10 C 52.93 126.98 65.64 134.80 79.44 137.09 C 88.92 138.67 98.85 138.17 108.00 135.09 C 122.17 130.69 133.70 120.30 141.75 108.08 L 142.08 109.31 C 152.71 97.26 158.52 81.38 159.73 65.45 L 160.00 66.69 L 160.00 76.76 C 159.87 80.35 159.57 83.92 159.45 87.50 C 159.27 87.54 158.90 87.62 158.72 87.66 C 154.94 104.63 146.33 120.56 133.39 132.28 C 132.54 133.03 131.66 133.74 130.76 134.44 C 128.14 133.85 125.97 135.83 123.71 136.81 C 98.33 150.01 65.00 144.29 45.04 123.92 C 27.74 107.41 22.86 79.28 34.08 58.08 C 35.14 55.93 36.86 53.89 36.69 51.36 Z" />
</g>
<g id="#7b6aa9ff">
<path fill="#7b6aa9" opacity="1.00" d=" M 43.24 37.20 C 46.53 37.34 41.70 40.22 43.24 37.20 Z" />
</g>
<g id="#9f94b0ff">
<path fill="#9f94b0" opacity="1.00" d=" M 106.80 44.11 C 108.30 45.02 109.72 46.05 111.12 47.11 C 112.62 45.97 114.13 44.84 115.67 43.76 C 114.72 45.48 113.54 47.05 112.18 48.46 C 113.40 49.68 114.50 51.03 115.35 52.54 C 113.92 51.63 112.53 50.64 111.12 49.71 C 110.84 49.92 110.30 50.36 110.03 50.58 C 109.57 50.97 108.66 51.75 108.20 52.14 C 108.00 51.89 107.58 51.39 107.38 51.14 C 108.26 50.25 109.13 49.37 110.01 48.49 C 108.86 47.09 107.77 45.64 106.80 44.11 Z" />
</g>
<g id="#32238dff">
<path fill="#32238d" opacity="1.00" d=" M 115.67 43.76 C 123.91 54.66 126.78 69.44 122.94 82.58 C 121.94 77.79 122.17 72.80 120.70 68.10 C 118.76 61.48 115.17 55.24 110.03 50.58 C 110.30 50.36 110.84 49.92 111.12 49.71 C 112.53 50.64 113.92 51.63 115.35 52.54 C 114.50 51.03 113.40 49.68 112.18 48.46 C 113.54 47.05 114.72 45.48 115.67 43.76 Z" />
</g>
<g id="#573baeff">
<path fill="#573bae" opacity="1.00" d=" M 56.96 51.35 C 64.49 47.63 73.39 46.36 81.52 48.73 C 72.58 47.83 63.26 49.94 56.36 55.90 C 43.67 66.54 39.90 85.96 47.26 100.74 C 50.38 107.92 56.45 113.02 62.15 118.10 C 57.39 116.46 53.38 113.30 49.82 109.82 C 44.98 104.73 41.24 98.58 39.24 91.84 C 37.69 86.91 37.78 81.68 37.28 76.58 C 40.38 66.12 47.33 56.66 56.96 51.35 Z" />
<path fill="#573bae" opacity="1.00" d=" M 58.55 69.37 C 62.81 61.84 71.19 56.82 79.97 57.80 C 79.97 59.47 79.97 61.15 79.98 62.83 C 78.75 62.67 77.52 62.56 76.29 62.48 C 71.32 62.17 66.43 64.13 62.74 67.40 C 58.65 71.10 56.12 76.16 55.04 81.53 C 55.05 77.23 56.26 73.01 58.55 69.37 Z" />
<path fill="#573bae" opacity="1.00" d=" M 71.27 68.47 C 74.08 67.45 77.10 67.20 80.06 67.62 C 72.46 67.06 67.46 74.23 66.63 80.99 C 66.24 88.02 71.56 94.07 77.86 96.45 C 78.39 96.65 79.45 97.05 79.98 97.26 C 79.97 98.90 79.96 100.55 79.96 102.20 C 77.81 101.79 75.69 101.30 73.57 100.79 C 67.92 97.88 63.12 92.93 62.01 86.48 C 61.39 79.30 64.73 71.85 71.27 68.47 Z" />
<path fill="#573bae" opacity="1.00" d=" M 72.06 72.34 C 74.13 70.23 76.90 68.89 79.88 68.85 C 79.99 70.83 80.10 72.81 80.21 74.79 C 78.05 75.88 75.20 77.03 75.36 79.96 C 75.13 82.94 78.03 84.18 80.24 85.28 C 80.11 87.29 79.98 89.29 79.85 91.30 C 78.15 91.07 76.47 90.69 74.83 90.19 C 69.06 86.29 67.86 77.78 72.06 72.34 Z" />
</g>
<g id="#bc9dc9ff">
<path fill="#bc9dc9" opacity="1.00" d=" M 18.75 53.18 C 15.82 54.06 16.92 50.21 19.19 50.43 C 19.08 51.12 18.86 52.49 18.75 53.18 Z" />
</g>
<g id="#422c9fff">
<path fill="#422c9f" opacity="1.00" d=" M 108.20 52.14 C 108.66 51.75 109.57 50.97 110.03 50.58 C 115.17 55.24 118.76 61.48 120.70 68.10 C 122.17 72.80 121.94 77.79 122.94 82.58 C 120.30 92.66 113.87 101.60 105.24 107.42 C 97.58 112.05 88.00 113.77 79.30 111.39 C 88.94 112.30 98.98 109.24 105.71 102.12 C 118.97 89.22 120.08 66.30 108.20 52.14 Z" />
<path fill="#422c9f" opacity="1.00" d=" M 79.97 57.80 C 87.13 58.82 94.34 63.08 96.91 70.13 C 99.92 78.33 96.07 88.23 88.03 91.84 C 85.36 92.51 82.60 92.76 79.87 92.35 C 88.40 93.02 94.87 83.98 93.15 76.02 C 92.16 69.32 86.17 64.61 79.98 62.83 C 79.97 61.15 79.97 59.47 79.97 57.80 Z" />
<path fill="#422c9f" opacity="1.00" d=" M 79.88 68.85 C 80.61 68.83 82.07 68.78 82.79 68.75 C 86.23 70.36 89.39 73.17 90.17 77.03 C 92.07 83.58 86.98 91.49 79.85 91.30 C 79.98 89.29 80.11 87.29 80.24 85.28 C 80.64 85.04 81.45 84.58 81.86 84.34 C 85.54 82.99 85.62 77.10 81.90 75.75 C 81.48 75.51 80.63 75.03 80.21 74.79 C 80.10 72.81 79.99 70.83 79.88 68.85 Z" />
<path fill="#422c9f" opacity="1.00" d=" M 44.22 116.10 C 35.85 104.99 33.24 89.87 37.28 76.58 C 37.78 81.68 37.69 86.91 39.24 91.84 C 41.24 98.58 44.98 104.73 49.82 109.82 C 47.76 111.74 45.88 113.83 44.22 116.10 Z" />
</g>
<g id="#61588bff">
<path fill="#61588b" opacity="1.00" d=" M 145.72 60.07 C 144.32 62.30 142.68 58.80 145.11 58.57 C 145.26 58.95 145.56 59.70 145.72 60.07 Z" />
</g>
<g id="#13a1f1ff">
<path fill="#13a1f1" opacity="1.00" d=" M 62.74 67.40 C 66.43 64.13 71.32 62.17 76.29 62.48 C 74.39 64.26 72.32 66.01 71.27 68.47 C 64.73 71.85 61.39 79.30 62.01 86.48 C 59.30 80.20 61.54 73.68 62.74 67.40 Z" />
</g>
<g id="#22cffeff">
<path fill="#22cffe" opacity="1.00" d=" M 62.74 67.40 C 61.54 73.68 59.30 80.20 62.01 86.48 C 63.12 92.93 67.92 97.88 73.57 100.79 C 77.89 104.91 84.22 105.84 89.96 105.90 C 95.49 106.03 100.44 103.30 105.71 102.12 C 98.98 109.24 88.94 112.30 79.30 111.39 C 71.12 109.90 63.16 105.50 58.73 98.28 C 55.43 93.40 54.56 87.29 55.04 81.53 C 56.12 76.16 58.65 71.10 62.74 67.40 Z" />
</g>
<g id="#b8d7cdff">
<path fill="#b8d7cd" opacity="1.00" d=" M 111.12 74.28 C 111.62 73.89 112.61 73.11 113.10 72.72 C 113.79 73.49 114.48 74.25 115.17 75.02 C 114.49 75.73 113.81 76.43 113.14 77.14 C 112.56 76.79 111.41 76.08 110.84 75.72 C 110.91 75.36 111.05 74.64 111.12 74.28 Z" />
</g>
<g id="#422da0ff">
<path fill="#422da0" opacity="1.00" d=" M 105.16 73.89 C 105.85 79.85 104.28 85.87 101.45 91.10 C 96.91 98.32 88.66 103.28 79.96 102.20 C 79.96 100.55 79.97 98.90 79.98 97.26 C 87.00 98.57 94.71 96.30 99.30 90.68 C 103.30 86.04 105.16 79.96 105.16 73.89 Z" />
</g>
<g id="#13105fff">
<path fill="#13105f" opacity="1.00" d=" M 75.36 79.96 C 75.20 77.03 78.05 75.88 80.21 74.79 C 80.63 75.03 81.48 75.51 81.90 75.75 C 81.44 75.77 80.52 75.80 80.06 75.81 C 79.89 78.57 79.90 81.33 80.09 84.09 C 80.53 84.15 81.42 84.28 81.86 84.34 C 81.45 84.58 80.64 85.04 80.24 85.28 C 78.03 84.18 75.13 82.94 75.36 79.96 Z" />
</g>
<g id="#00000aff">
<path fill="#00000a" opacity="1.00" d=" M 80.06 75.81 C 80.52 75.80 81.44 75.77 81.90 75.75 C 85.62 77.10 85.54 82.99 81.86 84.34 C 81.42 84.28 80.53 84.15 80.09 84.09 C 79.90 81.33 79.89 78.57 80.06 75.81 Z" />
</g>
<g id="#d6ccb8ff">
<path fill="#d6ccb8" opacity="1.00" d=" M 134.87 85.21 C 135.14 84.78 135.69 83.93 135.96 83.51 C 137.45 83.84 138.50 84.87 139.40 86.04 C 138.16 87.32 136.65 88.30 134.79 87.76 C 134.81 87.12 134.85 85.85 134.87 85.21 Z" />
</g>
<g id="#13105ffe">
<path fill="#13105f" opacity="1.00" d=" M 158.72 87.66 C 160.16 89.07 159.05 91.28 159.01 93.01 C 156.23 109.63 148.10 125.26 136.09 137.09 C 135.19 135.49 134.29 133.88 133.39 132.28 C 146.33 120.56 154.94 104.63 158.72 87.66 Z" />
</g>
<g id="#8585aaff">
<path fill="#8585aa" opacity="1.00" d=" M 16.62 90.99 C 17.76 91.64 18.92 92.24 20.10 92.82 C 20.87 92.17 21.65 91.51 22.43 90.86 C 22.42 91.19 22.41 91.84 22.41 92.16 C 20.96 93.33 20.94 94.70 22.34 96.28 C 20.35 94.59 18.52 95.86 16.81 97.02 C 17.53 95.94 18.22 94.84 18.91 93.74 C 18.15 92.82 17.39 91.91 16.62 90.99 Z" />
</g>
<g id="#aca3a8ff">
<path fill="#aca3a8" opacity="1.00" d=" M 134.97 110.00 C 134.24 108.46 135.37 107.50 136.66 107.11 C 138.70 108.24 137.17 111.51 134.97 110.00 Z" />
</g>
<g id="#ab9faeff">
<path fill="#ab9fae" opacity="1.00" d=" M 97.72 122.85 C 98.00 123.92 98.28 124.98 98.54 126.06 C 98.62 126.45 98.79 127.23 98.87 127.61 C 100.45 127.93 102.45 127.46 103.61 128.87 C 102.02 128.96 100.43 129.02 98.84 129.05 C 98.65 130.61 98.41 132.19 97.64 133.58 C 97.39 132.08 97.17 130.57 96.99 129.06 C 95.36 129.02 93.73 128.94 92.11 128.83 C 93.49 127.73 95.31 127.82 96.96 127.59 C 97.08 126.39 97.22 125.18 97.38 123.98 L 97.72 122.85 Z" />
</g>
<g id="#bcb5b0ff">
<path fill="#bcb5b0" opacity="1.00" d=" M 41.98 137.28 C 43.33 135.22 46.01 136.85 45.05 139.06 C 43.59 139.71 42.21 138.77 41.98 137.28 Z" />
</g>
</svg>
