<svg xmlns="http://www.w3.org/2000/svg" xmlns:xlink="http://www.w3.org/1999/xlink" width="40pt" height="40pt" viewBox="0 0 59.3 59.4" xmlns:v="https://vecta.io/nano"><radialGradient id="A" cx="29.7" cy="1048.48" r="28.944" gradientTransform="matrix(1 0 0 1 0 -1018.78)" gradientUnits="userSpaceOnUse"><stop offset="0" stop-color="#3e57a6"/><stop offset=".18" stop-color="#3c54a1"/><stop offset=".4" stop-color="#354b92"/><stop offset=".65" stop-color="#2b3d79"/><stop offset=".91" stop-color="#1c2856"/><stop offset="1" stop-color="#162048"/></radialGradient><circle cx="29.7" cy="29.7" r="29" fill="url(#A)"/><defs><circle id="B" cx="29.7" cy="29.7" r="29"/></defs><clipPath id="C"><use xlink:href="#B"/></clipPath><g clip-path="url(#C)"><linearGradient id="D" gradientUnits="userSpaceOnUse" x1="22.915" y1="46.58" x2="54.915" y2="12.22"><stop offset="0" stop-color="#eb2627"/><stop offset=".13" stop-color="#ed4229"/><stop offset=".43" stop-color="#f2822d"/><stop offset=".69" stop-color="#f5b130"/><stop offset=".89" stop-color="#f7cd31"/><stop offset="1" stop-color="#f8d832"/></linearGradient><path d="M53.9 32.6l-.4 3.1h0c-1.2 1.5-3.8 3.7-9.2 6.4 2.9-.2 5.7-1.1 8.1-2.7h0c-2.7 7.2-9 12.6-16.6 14h0l.3-.1c1.2-.5 2-1.6 2.1-2.8h0c0-.4.1-.8 0-1.2v-.7h0c-.1-2.6-1.2-5.1-3.1-6.9v-.8h0 0c.2-.1.4-.2.7-.3 1-.4 1.9-1 2.7-1.7l.5-.4h0c7-6.5 8.4-22.1-3.2-32.7C40 7 43.9 9.3 47 12.3h0c0 .1.3 1.5-.8 5.1.8-1.2 1.4-2.6 1.9-4h0c1.7 2 3 4.3 3.9 6.7a24.13 24.13 0 0 1 .8 2.5c-1.2 2.4-2.7 4.6-4.4 6.6 1.9-1.2 3.5-2.7 4.9-4.4h0c.3 1.7.5 3.5.5 5.2.2 1 .1 1.8.1 2.6z" fill="url(#D)"/><linearGradient id="E" gradientUnits="userSpaceOnUse" x1="45.454" y1="30.546" x2="52.844" y2="12.426"><stop offset="0" stop-color="#b78a3e"/><stop offset="1" stop-color="#ceae4c"/></linearGradient><path d="M49.7 22c.1-2.9-.4-5.8-1.5-8.5 1.7 2 3 4.2 3.9 6.6l.8 2.5c-1.2 2.4-2.7 4.6-4.4 6.6.7-2.3 1.1-4.7 1.2-7.2z" fill="url(#E)"/><linearGradient id="F" gradientUnits="userSpaceOnUse" x1="56.425" y1="25.63" x2="39.875" y2="51.89"><stop offset="0" stop-color="#b78a3e"/><stop offset="1" stop-color="#eb2627"/></linearGradient><path d="M53.9 32.6l-.4 3.1h0c-1.2 1.5-3.8 3.7-9.2 6.4 2.7-3 9-12.7 9.1-17.1.3 1.7.5 3.5.5 5.2.1.8 0 1.6 0 2.4z" fill="url(#F)"/><linearGradient id="G" gradientUnits="userSpaceOnUse" x1="38.571" y1="42.489" x2="44.081" y2="-18.421"><stop offset="0" stop-color="#eb2627"/><stop offset=".06" stop-color="#ed4129"/><stop offset=".16" stop-color="#f0692b"/><stop offset=".26" stop-color="#f28c2d"/><stop offset=".37" stop-color="#f4a72f"/><stop offset=".49" stop-color="#f6bd30"/><stop offset=".62" stop-color="#f7cc31"/><stop offset=".78" stop-color="#f8d532"/><stop offset="1" stop-color="#f8d832"/></linearGradient><path d="M42.5 10.3c1.8 2.8 8.4 18.7-3.3 28.1h0c7-6.5 8.4-22.1-3.2-32.7 4.2 1.2 8 3.5 11.2 6.6h0c-1.5-.8-3-1.5-4.7-2z" fill="url(#G)"/><linearGradient id="H" gradientUnits="userSpaceOnUse" x1="24.035" y1="75.764" x2="36.375" y2="26.394"><stop offset="0" stop-color="#eb2627"/><stop offset="1" stop-color="#f8d832"/></linearGradient><path d="M35.3 40.8v.8c2 1.9 3.1 4.5 3.1 7.2v.5c0 1.2 0 3.3-2.5 4.2-.5.9-1.1 1.8-1.8 2.5.7-1.7 1-3.6.7-5.5-.8 4.3-6.3 7.9-8.9 11.9-1.5 2.1-2.4 4.6-2.7 7.3a30.97 30.97 0 0 1 .9-10.5h0c0-.1.1-.2.1-.3v-.1c5.7-9.4 3.6-14.9 3.6-14.9l-1.5-3.8V40c0-.3-.1-.6-.1-.9h0c-.2-1.8-.1-3.6.3-5.3h0 0c.6-2.5 2.5-4.4 5-4.9-1.3-.5-2.1-1.6-2.3-3 .3.5 1.5 1.2 4.6 2 5.8 1.3 4.2 4 4.4 4.2 1.1 1 1.5 2.6 1.2 4.1-1-1.8-2.8-2.9-4.9-2.8-.5 0-.9.1-1.3.3h0c-2.3.8-.7 4.6 2.1 7.1z" fill="url(#H)"/><linearGradient id="I" gradientUnits="userSpaceOnUse" x1="46.47" y1="36.053" x2="26.88" y2="27.582"><stop offset="0" stop-color="#eb2627"/><stop offset="1" stop-color="#f8d832"/></linearGradient><path d="M39.2 35.9s.2-2.8-3.2-4.4c.5 0 1 0 1.4.2-.4-.9-1.6-2.7-4.8-2.4.5-.2 1.1-.3 1.7-.3 0 0-3.9-.6-5.2-3.2.3.5 1.5 1.2 4.6 2 5.8 1.3 4.2 4 4.4 4.2 1 .9 1.5 2.5 1.1 3.9z" fill="url(#I)"/><path d="M36 30.7c-.4.1-.8.1-1.2-.1-.3-.2-.6-.3-.9-.4 0 0 1.5-.5 2.1.5z" fill="#e92929"/><path d="M38.4 47.4c0-2.5-1.1-4.9-3.1-6.5h0 0 0c-2.8-2.6-4.5-6.3-2.4-7.4-1.1.5-1.7 1.8-1.5 3 .2 2.4 1.6 3.9 1.6 8.2.4-1.1.5-2.2.5-3.3.8.2 4.8 2.3 4.7 8.6.2-.9.2-1.8.2-2.6z" fill="#d17f2a"/><linearGradient id="J" gradientUnits="userSpaceOnUse" x1="59.266" y1="40.394" x2="24.346" y2="54.574"><stop offset="0" stop-color="#b78a3e"/><stop offset="1" stop-color="#eb2627"/></linearGradient><path d="M52.4 39.4c-2.7 7.2-9 12.6-16.6 14 1.3-2.4 1.6-5.2.9-7.8a7.1 7.1 0 0 1 1.5 4.4c.1-.9.2-1.7.1-2.6h0c7.7 0 13.9-7.8 14.1-8h0z" fill="url(#J)"/><linearGradient id="K" gradientUnits="userSpaceOnUse" x1="36.97" y1="55.35" x2="37.32" y2="33.68"><stop offset="0" stop-color="#8e5323"/><stop offset="1" stop-color="#e59b29"/></linearGradient><path d="M38.9 47.4c0 1-.2 2-.6 3h0v.1c0 .1-.1.2-.1.3-.1-1.3-.4-2.5-.8-3.7.3 2.1-.1 4.2-1.1 6.1h0v.1l-.3.1h0c1.3-2.4 1.6-5.2.9-7.8a7.1 7.1 0 0 1 1.5 4.4c0-.3.1-.8.1-1.2v-.2h0v-1.2c0-2.5-1.1-4.9-3.1-6.5h0 0 0c.2-.1.4-.2.7-.3 1.8 1.8 2.8 4.2 2.8 6.8z" fill="url(#K)"/><linearGradient id="L" gradientUnits="userSpaceOnUse" x1="16.049" y1="85.017" x2="18.409" y2="22.787"><stop offset="0" stop-color="#eb2627"/><stop offset=".11" stop-color="#ec2e27"/><stop offset=".28" stop-color="#ed4429"/><stop offset=".49" stop-color="#f0682b"/><stop offset=".74" stop-color="#f3992e"/><stop offset="1" stop-color="#f8d832"/></linearGradient><path d="M24.1 58.6h0c-6.6 6.9-8.3 17.1-4.3 25.7h0c-.2-.1-5.7-3.8-5.2-17.7-1.4 1.5-2 5.6-2 8.7s.5 4.7 1 8.1c.5 3.9.1 9.8-1.9 13.2h0c0-.2.5-8.3-1.8-13.5-5.5-11.4-.7-25.3 10.8-30.8 1.1-.5 2.3-1 3.5-1.3-2.4-.4-4.8 0-6.9 1.3-4.8-3.2-8.3-8-10-13.6 2.6 1.9 5.8 3 9 3.1h0c-6.1-2.4-8.9-5.5-10-7.2h0c-.6-4.4-.3-8.8 1.1-13h0v-.1c1.3 3 3.2 5.7 5.5 8-3.6-5.5-4-10-4-11.9h0c1.4-2.8 3.3-5.4 5.6-7.5h0c-.3 2.6 0 5.2 1.1 7.5-.1-3.2.3-6.3 1.2-9.4h0c3.2-2.3 6.9-3.6 10.8-4-13 11.7-9.6 27.9-3.3 34.2a11.92 11.92 0 0 0 1.8 1.5c1.7 1.5 2.9 3.5 3.3 5.8 1 3.9-1.8 9.5-5.3 12.9z" fill="url(#L)"/><linearGradient id="M" gradientUnits="userSpaceOnUse" x1="17.675" y1="33.796" x2="13.245" y2="17.847"><stop offset="0" stop-color="#b78a3e"/><stop offset="1" stop-color="#ceae4c"/></linearGradient><path d="M13 29.5h0c-1.4-4.2-2.3-12.4 1.6-19.4-1.2 3.7-1 7.6.3 11.2a24.68 24.68 0 0 0 1.7 11.1c-1.3-.8-2.5-1.8-3.6-2.9z" fill="url(#M)"/><linearGradient id="N" gradientUnits="userSpaceOnUse" x1="12.51" y1="29.632" x2="10.54" y2="-13.698"><stop offset="0" stop-color="#b78a3e"/><stop offset="1" stop-color="#ceae4c"/></linearGradient><path d="M13 29.5c-3.6-5.5-4-10-4-11.9h0c1.4-2.8 3.3-5.4 5.6-7.5-3.9 7-3 15.3-1.6 19.4z" fill="url(#N)"/><linearGradient id="O" gradientUnits="userSpaceOnUse" x1="12.203" y1="40.752" x2="-.987" y2="-1.188"><stop offset="0" stop-color="#b78a3e"/><stop offset="1" stop-color="#ceae4c"/></linearGradient><path d="M16.4 41.8c-6.1-2.4-8.9-5.5-10-7.2h0c-.6-4.4-.3-8.8 1.1-13-1 15.6 8.3 19.9 8.9 20.2z" fill="url(#O)"/><linearGradient id="P" gradientUnits="userSpaceOnUse" x1="28.738" y1="38.351" x2="18.758" y2="-.38"><stop offset="0" stop-color="#eb2627"/><stop offset=".06" stop-color="#ed4129"/><stop offset=".16" stop-color="#f0692b"/><stop offset=".26" stop-color="#f28c2d"/><stop offset=".37" stop-color="#f4a72f"/><stop offset=".49" stop-color="#f6bd30"/><stop offset=".62" stop-color="#f7cc31"/><stop offset=".78" stop-color="#f8d532"/><stop offset="1" stop-color="#f8d832"/></linearGradient><path d="M24.4 38.4h0C11.8 26.8 20.6 8.8 23.1 6.8c-2-.1-6 1.3-6.2 1.4 3.2-2.3 6.9-3.6 10.8-4-12.9 11.8-9.5 27.9-3.3 34.2z" fill="url(#P)"/><linearGradient id="Q" gradientUnits="userSpaceOnUse" x1="22.992" y1="42.777" x2="6.642" y2="26.967"><stop offset="0" stop-color="#b78a3e"/><stop offset="1" stop-color="#ceae4c"/></linearGradient><path d="M21 41.7c-1.5.2-3.1.2-4.6.1h0c-.5-.2-9.8-4.6-8.9-20.2h0C10.7 34.1 18.2 40.3 21 41.7z" fill="url(#Q)"/><linearGradient id="R" gradientUnits="userSpaceOnUse" x1="9.939" y1="92.34" x2="18.479" y2="27.75"><stop offset="0" stop-color="#eb2627"/><stop offset=".19" stop-color="#e4332a"/><stop offset=".56" stop-color="#d25732"/><stop offset="1" stop-color="#b78a3e"/></linearGradient><path d="M16.8 70.8c-.3 10.6 2.9 13.4 3 13.6h0c-.2-.1-5.7-3.8-5.2-17.7-1.4 1.5-2 5.6-2 8.7s.6 4.7 1 8.1c.5 3.9.1 9.8-1.9 13.2 1-4.6 1-9.3-.1-13.9C9.7 75.8 6 59.5 24.1 51c-2.4-.4-4.8 0-6.9 1.3-4.8-3.2-8.3-8-10-13.6 5.2 6.3 12.9 7.8 17.7 7.8.8 2.7.5 5.7-.9 8.2-1.7 3.6-6.9 5.3-7.2 16.1z" fill="url(#R)"/><linearGradient id="S" gradientUnits="userSpaceOnUse" x1="8.64" y1="96.146" x2="17.7" y2="51.906"><stop offset="0" stop-color="#602e8a"/><stop offset=".51" stop-color="#e92929"/><stop offset="1" stop-color="#f8d833"/></linearGradient><path d="M11.6 82.7c1.1 4.6 1.1 9.3.1 13.9h0c0-.2.5-8.3-1.8-13.5-5.5-11.5-.7-25.3 10.8-30.8 1.1-.5 2.3-1 3.4-1.3-18 8.4-14.4 24.8-12.5 31.7z" fill="url(#S)"/><linearGradient id="T" gradientUnits="userSpaceOnUse" x1="25.164" y1="60.163" x2="30.154" y2="33.323"><stop offset="0" stop-color="#8e5323"/><stop offset="1" stop-color="#e59b29"/></linearGradient><path d="M24.2 58.6h0c3.4-3.4 6.2-9 5.4-13-.4-2.3-1.6-4.3-3.3-5.8v-.1c0-.3-.1-.6-.1-.9h0 0c-.1.1 10.5 8.3-2 19.8z" fill="url(#T)"/></g><linearGradient id="U" gradientUnits="userSpaceOnUse" x1="0" y1="29.7" x2="59.3" y2="29.7"><stop offset="0" stop-color="#ef7126"/><stop offset="1" stop-color="#f8d832"/></linearGradient><path d="M29.7 59.4C13.3 59.4 0 46.1 0 29.7S13.3 0 29.7 0s29.6 13.3 29.6 29.7-13.2 29.6-29.6 29.7zm0-58C14.1 1.4 1.4 14.1 1.4 29.7S14.1 58 29.7 58s28.2-12.7 28.2-28.3h0c0-15.6-12.6-28.3-28.2-28.3z" fill="url(#U)"/></svg>